<svg aria-hidden="true" style="position: absolute; width: 0; height: 0; overflow: hidden;" version="1.1" xmlns="http://www.w3.org/2000/svg" xmlns:xlink="http://www.w3.org/1999/xlink">
<defs>
<symbol id="icon-chat" viewBox="0 0 47 32">
<path fill="#674d40" style="fill: var(--color1, #674d40)" d="M35.994 13.848c0-8.364-8.814-13.846-17.614-13.846-8.839 0-17.62 5.508-17.62 13.846 0 3.154 1.382 6.239 3.89 8.686 0.068 0.068 0.11 0.163 0.11 0.267 0 0.037-0.005 0.072-0.015 0.105l0.001-0.003c-0.789 2.887-2.654 5.495-3.419 6.482-0.131 0.166-0.21 0.379-0.21 0.61 0 0.165 0.040 0.32 0.111 0.456l-0.003-0.005c0.17 0.339 0.509 0.546 0.888 0.546h0.025c3.748-0.093 8.091-1.149 10.776-3.79 0.069-0.067 0.163-0.109 0.267-0.109 0.033 0 0.065 0.004 0.095 0.012l-0.003-0.001c1.65 0.391 3.368 0.589 5.105 0.589 8.834 0 17.617-5.505 17.617-13.846zM13.584 25.797c-0.121-0.031-0.261-0.048-0.405-0.048-0.47 0-0.896 0.189-1.206 0.495l0-0c-2.684 2.641-7.069 3.24-9.144 3.374 0.947-1.309 2.488-3.713 3.212-6.361 0.039-0.137 0.062-0.294 0.062-0.457 0-0.481-0.197-0.916-0.515-1.228l-0-0c-2.28-2.223-3.486-4.894-3.486-7.726 0-6.893 7.302-12.503 16.277-12.503 8.974 0 16.276 5.61 16.276 12.505 0 6.893-7.302 12.503-16.276 12.503-1.634 0-3.247-0.186-4.795-0.553z"></path>
<path fill="#674d40" style="fill: var(--color1, #674d40)" d="M40.311 24.994c3.911-1.977 6.246-5.345 6.246-9.012 0-5.182-4.685-9.61-11.137-10.529-0.028-0.004-0.061-0.007-0.095-0.007-0.37 0-0.671 0.3-0.671 0.671 0 0.337 0.249 0.616 0.573 0.664l0.004 0c5.786 0.823 9.985 4.694 9.985 9.201 0 3.15-2.060 6.070-5.51 7.814-0.544 0.28-0.91 0.837-0.91 1.48 0 0.121 0.013 0.24 0.038 0.354l-0.002-0.011c0.327 1.536 1.023 2.961 1.58 3.925-3.962-0.659-5.463-2.561-5.937-3.383-0.292-0.496-0.824-0.823-1.431-0.823-0.001 0-0.001 0-0.002 0h-0.055c-0.742 0-1.488-0.051-2.213-0.153-0.015-0.001-0.031-0.002-0.049-0.002-0.371 0-0.672 0.301-0.672 0.672 0 0.322 0.227 0.592 0.53 0.657l0.004 0.001c0.786 0.111 1.593 0.166 2.401 0.166h0.054c0.113 0 0.217 0.058 0.271 0.153 1.817 3.148 5.994 3.951 7.705 4.152 0.378 0.044 0.738-0.13 0.94-0.451 0.094-0.146 0.149-0.324 0.149-0.515 0-0.196-0.058-0.378-0.159-0.53l0.002 0.004c-0.515-0.803-1.435-2.411-1.806-4.152-0.004-0.019-0.007-0.041-0.007-0.064 0-0.123 0.070-0.229 0.172-0.281l0.002-0.001zM7.939 11.447c-1.284 0.001-2.325 1.041-2.326 2.325v0c0.002 1.284 1.042 2.324 2.326 2.325h0c1.283-0.002 2.323-1.042 2.325-2.325v-0c-0.002-1.283-1.042-2.323-2.325-2.325h-0zM7.939 14.756c-0.011 0-0.024 0.001-0.037 0.001-0.544 0-0.985-0.441-0.985-0.985s0.441-0.985 0.985-0.985c0.014 0 0.027 0 0.040 0.001l-0.002-0c0.527 0.021 0.946 0.454 0.946 0.984s-0.42 0.964-0.946 0.984l-0.002 0zM14.571 11.447c-1.283 0.002-2.323 1.042-2.325 2.325v0c0.002 1.283 1.042 2.323 2.325 2.325h0c1.283-0.002 2.323-1.042 2.325-2.325v-0c-0.002-1.283-1.042-2.323-2.325-2.325h-0zM14.571 14.756c-0.011 0-0.024 0.001-0.036 0.001-0.544 0-0.985-0.441-0.985-0.985s0.441-0.985 0.985-0.985c0.014 0 0.028 0 0.041 0.001l-0.002-0c0.527 0.022 0.946 0.454 0.946 0.984s-0.421 0.964-0.947 0.984l-0.002 0zM21.204 11.447c-1.283 0.002-2.323 1.042-2.325 2.325v0c0.002 1.283 1.042 2.323 2.325 2.325h0c1.283-0.002 2.323-1.042 2.325-2.325v-0c-0.002-1.283-1.042-2.323-2.325-2.325h-0zM21.204 14.756c-0.011 0-0.024 0.001-0.036 0.001-0.544 0-0.985-0.441-0.985-0.985s0.441-0.985 0.985-0.985c0.014 0 0.028 0 0.041 0.001l-0.002-0c0.527 0.022 0.946 0.454 0.946 0.984s-0.421 0.964-0.947 0.984l-0.002 0zM27.837 11.447c-1.283 0.002-2.323 1.042-2.325 2.325v0c0.002 1.283 1.042 2.323 2.325 2.325h0c1.283-0.002 2.323-1.042 2.325-2.325v-0c-0.002-1.283-1.042-2.323-2.325-2.325h-0zM27.837 14.756c-0.011 0-0.024 0.001-0.036 0.001-0.544 0-0.985-0.441-0.985-0.985s0.441-0.985 0.985-0.985c0.014 0 0.028 0 0.041 0.001l-0.002-0c0.527 0.022 0.946 0.454 0.946 0.984s-0.421 0.964-0.947 0.984l-0.002 0z"></path>
</symbol>
<symbol id="icon-chef-hat" viewBox="0 0 35 32">
<path fill="#674d40" style="fill: var(--color1, #674d40)" d="M25.046 8.515c0 0 0 0 0 0-0.27 0-0.489-0.218-0.49-0.488v-0c-0.079-3.896-3.256-7.024-7.164-7.024s-7.085 3.128-7.164 7.017l-0 0.007c0 0.27-0.219 0.49-0.49 0.49s-0.49-0.219-0.49-0.49v0c0.060-4.451 3.683-8.037 8.143-8.037s8.083 3.585 8.143 8.031l0 0.006c-0.001 0.269-0.219 0.488-0.488 0.488h-0z"></path>
<path fill="#674d40" style="fill: var(--color1, #674d40)" d="M26.474 19.589c-0.26-0.013-0.467-0.227-0.467-0.489 0-0.26 0.203-0.473 0.46-0.489l0.001-0c3.88-0.023 7.022-3.148 7.073-7.018l0-0.005c-0.039-3.895-3.206-7.037-7.106-7.037-0.019 0-0.037 0-0.056 0l0.003-0c-0.723 0-1.441 0.106-2.133 0.316-0.035 0.009-0.075 0.014-0.117 0.014-0.27 0-0.49-0.219-0.49-0.49 0-0.209 0.132-0.388 0.317-0.458l0.003-0.001c0.72-0.228 1.548-0.359 2.407-0.359 0.004 0 0.009 0 0.013 0h-0.001c0.015-0 0.034-0 0.052-0 4.441 0 8.046 3.58 8.086 8.012l0 0.004c-0.054 4.41-3.625 7.969-8.036 8.001l-0.003 0h-0.007zM8.309 19.589h-0.007c-4.412-0.033-7.983-3.591-8.037-7.995l-0-0.005c0.040-4.436 3.646-8.017 8.087-8.017 0.018 0 0.036 0 0.055 0h-0.003c0.819-0.001 1.635 0.12 2.418 0.359 0.216 0.054 0.373 0.247 0.373 0.476 0 0.27-0.219 0.49-0.49 0.49-0.061 0-0.119-0.011-0.173-0.032l0.003 0.001c-0.634-0.2-1.363-0.316-2.119-0.316-0.004 0-0.009 0-0.013 0h0.001c-0.016-0-0.035-0-0.055-0-3.901 0-7.067 3.142-7.106 7.034l-0 0.004c0.052 3.875 3.193 6.999 7.070 7.023h0.002c0.269 0.002 0.486 0.22 0.486 0.489 0 0.27-0.219 0.489-0.489 0.489-0.001 0-0.002 0-0.003 0h0z"></path>
<path fill="#674d40" style="fill: var(--color1, #674d40)" d="M26.474 31.765h-18.165c-0.27 0-0.49-0.219-0.49-0.49v-12.174c-0-0.008-0.001-0.017-0.001-0.026 0-0.27 0.219-0.49 0.49-0.49s0.49 0.219 0.49 0.49c0 0.009-0 0.018-0.001 0.027l0-0.001v11.684h17.188v-11.684c0-0.27 0.219-0.489 0.489-0.489s0.489 0.219 0.489 0.489v0 12.174c0 0.27-0.219 0.49-0.49 0.49v0z"></path>
<path fill="#674d40" style="fill: var(--color1, #674d40)" d="M29.881 27.022h-18.166c-0.008 0-0.017 0.001-0.026 0.001-0.27 0-0.49-0.219-0.49-0.49s0.219-0.49 0.49-0.49c0.009 0 0.018 0 0.027 0.001l-0.001-0h18.166c0.259 0.014 0.464 0.228 0.464 0.489s-0.205 0.475-0.462 0.489l-0.001 0z"></path>
</symbol>
<symbol id="icon-clock" viewBox="0 0 32 32">
<path fill="#674d40" style="fill: var(--color1, #674d40)" d="M16 0c-8.823 0-16 7.177-16 16 0 8.822 7.177 16 16 16 8.822 0 16-7.178 16-16 0-8.823-7.178-16-16-16zM16 30.934c-8.234 0-14.934-6.7-14.934-14.934s6.7-14.934 14.934-14.934 14.934 6.7 14.934 14.934-6.7 14.934-14.934 14.934z"></path>
<path fill="#674d40" style="fill: var(--color1, #674d40)" d="M16.534 13.878v-5.409c0-0.295-0.239-0.534-0.534-0.534s-0.534 0.239-0.534 0.534v5.409c-0.747 0.2-1.324 0.777-1.52 1.51l-0.003 0.015h-3.809c-0.008-0-0.017-0.001-0.026-0.001-0.295 0-0.534 0.239-0.534 0.534s0.239 0.534 0.534 0.534c0.009 0 0.018-0 0.027-0.001l-0.001 0h3.809c0.238 0.918 1.066 1.6 2.057 1.6 1.178 0 2.134-0.956 2.134-2.132 0-0.992-0.684-1.819-1.6-2.058zM16 17.002c-0.589-0.001-1.066-0.478-1.066-1.068s0.478-1.068 1.068-1.068c0 0 0.001 0 0.001 0h-0c0.589 0.001 1.066 0.478 1.066 1.068s-0.478 1.068-1.068 1.068c-0 0-0.001 0-0.001 0h0zM16 5.268c0.294 0 0.534-0.238 0.534-0.532v-0.534c0-0.295-0.239-0.534-0.534-0.534s-0.534 0.239-0.534 0.534v0 0.534c0 0.294 0.239 0.532 0.534 0.532zM16 26.602c-0.295 0-0.534 0.239-0.534 0.534v0 0.532c0 0.295 0.239 0.534 0.534 0.534s0.534-0.239 0.534-0.534v-0.532c0-0 0-0.001 0-0.001 0-0.294-0.238-0.532-0.532-0.532-0 0-0.001 0-0.001 0h0zM27.734 15.402h-0.534c-0.008-0-0.017-0.001-0.026-0.001-0.295 0-0.534 0.239-0.534 0.534s0.239 0.534 0.534 0.534c0.009 0 0.018-0 0.027-0.001l-0.001 0h0.534c0.008 0 0.017 0.001 0.026 0.001 0.295 0 0.534-0.239 0.534-0.534s-0.239-0.534-0.534-0.534c-0.009 0-0.018 0-0.027 0.001l0.001-0zM4.8 15.402h-0.534c-0.294 0-0.533 0.239-0.533 0.533s0.239 0.533 0.533 0.533v0h0.534c0.008 0 0.017 0.001 0.026 0.001 0.295 0 0.534-0.239 0.534-0.534s-0.239-0.534-0.534-0.534c-0.009 0-0.018 0-0.027 0.001l0.001-0zM23.919 7.261l-0.378 0.378c-0.096 0.097-0.156 0.23-0.156 0.377 0 0.295 0.239 0.534 0.534 0.534 0.148 0 0.281-0.060 0.378-0.157v0l0.376-0.378c0.096-0.096 0.156-0.23 0.156-0.377 0-0.294-0.239-0.533-0.533-0.533-0.147 0-0.28 0.060-0.377 0.156v0zM7.703 23.478l-0.376 0.378c-0.096 0.096-0.156 0.23-0.156 0.377 0 0.294 0.239 0.533 0.533 0.533 0.147 0 0.28-0.060 0.377-0.156l0.378-0.378c0.096-0.097 0.156-0.23 0.156-0.377 0-0.295-0.239-0.534-0.534-0.534-0.147 0-0.281 0.060-0.378 0.157v0zM24.297 23.478c-0.097-0.097-0.23-0.156-0.378-0.156-0.295 0-0.534 0.239-0.534 0.534 0 0.147 0.060 0.281 0.156 0.378v0l0.378 0.376c0.096 0.097 0.23 0.158 0.378 0.158s0.281-0.060 0.378-0.158l0-0c0.097-0.096 0.157-0.23 0.157-0.378s-0.060-0.281-0.157-0.378l-0-0-0.378-0.376zM8.081 7.261c-0.097-0.097-0.23-0.156-0.378-0.156-0.295 0-0.534 0.239-0.534 0.534 0 0.147 0.060 0.281 0.156 0.378v0l0.378 0.376c0.096 0.097 0.23 0.157 0.378 0.157s0.281-0.060 0.378-0.157l0-0c0.097-0.096 0.157-0.23 0.157-0.378s-0.060-0.281-0.157-0.378l-0-0-0.378-0.376z"></path>
</symbol>
<symbol id="icon-facebook" viewBox="0 0 19 32">
<path d="M16.659 0.007l-4.153-0.007c-4.666 0-7.681 3.093-7.681 7.882v3.634h-4.177c-0.36 0-0.652 0.292-0.652 0.652v0 5.266c0 0.361 0.293 0.654 0.652 0.654h4.177v13.286c0 0.361 0.292 0.652 0.652 0.652h5.448c0.001 0 0.001 0 0.002 0 0.36 0 0.652-0.292 0.652-0.652 0 0 0 0 0 0v0-13.288h4.882c0 0 0.001 0 0.002 0 0.36 0 0.652-0.292 0.652-0.652 0-0.001 0-0.001 0-0.002v0-5.262c-0.001-0.36-0.292-0.651-0.652-0.652h-4.883v-3.083c0-1.48 0.354-2.232 2.281-2.232h2.798c0 0 0 0 0 0 0.36 0 0.652-0.292 0.652-0.652 0-0.001 0-0.001 0-0.002v0-4.888c0 0 0 0 0 0 0-0.36-0.291-0.652-0.65-0.654h-0z"></path>
</symbol>
<symbol id="icon-instagramm" viewBox="0 0 32 32">
<path d="M16.328 32.026h-0.319c-0.141 0.001-0.307 0.001-0.474 0.001-2.326 0-4.636-0.071-6.926-0.212l0.314 0.015c-2.068-0.126-3.956-0.841-5.46-2.067-1.45-1.183-2.441-2.783-2.945-4.753-0.438-1.718-0.46-3.402-0.484-5.032-0.017-1.168-0.032-2.554-0.035-3.963 0.003-1.416 0.020-2.801 0.035-3.97 0.024-1.63 0.045-3.314 0.484-5.032 0.504-1.972 1.493-3.57 2.945-4.753 1.504-1.225 3.391-1.94 5.461-2.067 1.979-0.125 4.291-0.197 6.62-0.197 0.166 0 0.331 0 0.497 0.001l-0.026-0c0.135-0.001 0.295-0.001 0.454-0.001 2.333 0 4.65 0.071 6.947 0.212l-0.315-0.015c2.068 0.126 3.956 0.841 5.46 2.067 1.45 1.183 2.441 2.781 2.945 4.753 0.438 1.718 0.46 3.402 0.484 5.032 0.017 1.168 0.034 2.554 0.035 3.963v0.007c-0.003 1.407-0.020 2.793-0.035 3.963-0.024 1.63-0.046 3.314-0.484 5.032-0.504 1.97-1.493 3.57-2.945 4.753-1.504 1.225-3.391 1.94-5.461 2.067-1.967 0.125-4.265 0.196-6.58 0.196-0.067 0-0.134-0-0.201-0h0.010zM16.010 29.523c0.141 0.001 0.308 0.001 0.476 0.001 2.275 0 4.533-0.070 6.773-0.207l-0.308 0.015c1.563-0.094 2.919-0.602 4.029-1.507 1.028-0.838 1.736-1.994 2.102-3.434 0.366-1.429 0.388-2.963 0.406-4.447 0.017-1.163 0.034-2.537 0.037-3.933-0.003-1.396-0.020-2.771-0.037-3.933-0.020-1.483-0.040-3.017-0.405-4.447-0.369-1.441-1.075-2.596-2.102-3.434-1.113-0.905-2.468-1.413-4.032-1.507-1.941-0.123-4.209-0.193-6.494-0.193-0.154 0-0.308 0-0.463 0.001l0.024-0c-0.135-0.001-0.294-0.001-0.453-0.001-2.282 0-4.547 0.070-6.795 0.208l0.308-0.015c-1.564 0.094-2.921 0.602-4.032 1.507-1.027 0.838-1.733 1.992-2.1 3.434-0.366 1.429-0.388 2.963-0.406 4.447-0.017 1.163-0.034 2.538-0.037 3.936 0.003 1.389 0.020 2.766 0.037 3.927 0.020 1.483 0.040 3.017 0.405 4.447 0.369 1.441 1.075 2.596 2.102 3.435 1.112 0.905 2.468 1.413 4.032 1.507 2.201 0.135 4.47 0.197 6.933 0.19zM15.951 23.833c-4.317-0.005-7.815-3.503-7.819-7.819v-0c0.005-4.317 3.503-7.815 7.819-7.819h0c4.317 0.005 7.815 3.503 7.819 7.819v0c-0.005 4.317-3.504 7.816-7.821 7.819h-0zM15.951 10.697c-2.935 0.003-5.314 2.381-5.318 5.316v0c0.004 2.935 2.383 5.314 5.318 5.316h0c2.935-0.004 5.313-2.382 5.316-5.316v-0c-0.004-2.935-2.382-5.313-5.316-5.316h-0zM24.645 5.691c-1.037 0-1.877 0.84-1.877 1.877s0.84 1.877 1.877 1.877v0c1.036 0 1.876-0.84 1.876-1.876s-0.84-1.876-1.876-1.876v0z"></path>
</symbol>
<symbol id="icon-logo" viewBox="0 0 71 32">
<path d="M42.265 15.998c0 0.261-0.008 0.521 0 0.782 0.089 2.653-0.736 5.043-2.060 7.297-0.362 0.591-0.778 1.348-1.165 2.123l-0.086 0.19c-0.316 0.649-0.754 1.104-1.436 1.37-0.381 0.148-0.734 0.405-1.053 0.669-1.469 1.218-3.136 2.091-4.919 2.705-1.184 0.408-2.403 0.767-3.69 0.751-0.383-0.005-0.768 0.114-1.152 0.115s-0.768-0.124-1.149-0.108c-1.659 0.072-3.196-0.441-4.721-0.979-1.665-0.586-3.136-1.513-4.519-2.617-1.952-1.558-3.343-3.52-4.366-5.766-0.551-1.211-1-2.46-1.126-3.804-0.021-0.223-0.095-0.444-0.16-0.66-0.464-1.507-0.197-2.985 0.090-4.487 0.22-1.148 0.445-2.283 0.873-3.373 1.13-2.884 2.925-5.246 5.411-7.1 2.073-1.545 4.392-2.494 6.914-2.903 2.894-0.468 5.718-0.131 8.46 0.963 1.368 0.548 2.658 1.241 3.785 2.159 1.051 0.856 1.999 1.859 2.895 2.883 0.812 0.929 1.388 2.034 1.903 3.162 0.804 1.762 1.328 3.587 1.275 5.546-0.012 0.362-0.003 0.721-0.004 1.080zM41.154 12.428c-0.080-0.616-0.13-1.33-0.28-2.022-0.427-1.992-1.576-3.548-3.107-4.818-0.87-0.722-1.817-1.349-2.752-1.988-0.316-0.216-0.684-0.415-1.053-0.481-0.95-0.176-1.91-0.34-2.873-0.389-1.671-0.086-3.172-0.518-4.433-1.685-0.929-0.858-1.94-0.941-2.905-0.186-1.094 0.855-2.339 1.358-3.608 1.855-0.93 0.364-1.826 0.823-2.72 1.276-0.747 0.38-1.182 0.971-1.172 1.867 0.006 0.503-0.223 0.923-0.687 1.201-0.425 0.258-0.788 0.513-1.133 0.789l0.021-0.016c-0.989 0.781-1.76 1.661-1.926 3.028-0.132 1.080-0.457 2.148-1.194 3.038-0.238 0.293-0.396 0.659-0.44 1.059l-0.001 0.009c-0.068 0.808-0.040 1.625-0.020 2.438 0.005 0.217 0.099 0.45 0.21 0.642 0.293 0.519 0.568 0.948 0.863 1.362l-0.032-0.047c0.724 1.011 1.354 2.046 1.499 3.33 0.141 1.244 0.739 2.257 1.751 3.030 1.466 1.121 2.88 2.311 4.368 3.403 0.8 0.588 1.656 1.102 2.711 1.221s2.089 0.407 3.035 0.941c0.198 0.107 0.416 0.174 0.64 0.197 1.334 0.144 2.57-0.188 3.742-0.814 0.265-0.147 0.635-0.329 1.012-0.5l0.115-0.046c0.916-0.412 1.931-0.682 2.729-1.255 0.888-0.639 1.837-0.923 2.855-1.101 0.44-0.078 0.8-0.26 1.086-0.588 0.342-0.39 0.658-0.802 1.014-1.179 0.369-0.389 0.635-0.802 0.699-1.356 0.099-0.849 0.461-1.599 0.92-2.32 0.778-1.217 1.22-2.562 1.45-3.993 0.060-0.375 0.095-0.692-0.090-1.022-0.535-0.953-0.317-2.035-0.486-3.049-0.086-0.549 0.112-1.148 0.194-1.832l-0.002 0.001zM34.713 2.909c-0.225-0.251-0.297-0.364-0.4-0.434-0.185-0.128-0.386-0.233-0.583-0.344-1.679-0.95-3.519-1.412-5.399-1.743-0.377-0.068-0.774-0.037-1.16-0.023-0.1 0.004-0.22 0.102-0.284 0.19-0.029 0.040 0.037 0.18 0.092 0.247 0.412 0.491 0.945 0.867 1.553 1.084l0.025 0.008c1.061 0.384 2.177 0.594 3.304 0.623 0.478 0.013 0.954 0.104 1.429 0.169 0.406 0.058 0.811 0.127 1.421 0.223zM20.442 30.286c-1.127-0.925-2.116-1.752-3.121-2.557-0.832-0.666-1.683-1.309-2.534-1.952-0.096-0.072-0.247-0.070-0.456-0.124 1.025 1.729 4.45 4.354 6.111 4.633zM12.846 8.699c0.68-0.521 1.309-1.071 2-1.524 0.968-0.634 1.339-1.421 1.11-2.773-0.687 0.564-1.177 1.244-1.707 1.861-0.56 0.651-0.975 1.427-1.442 2.155-0.036 0.059 0.023 0.175 0.039 0.281zM35.776 28.422c-0.634-0.044-1.273 0.069-1.671 0.412-0.755 0.652-1.653 0.98-2.567 1.306-0.48 0.171-0.932 0.422-1.384 0.662-0.063 0.033-0.074 0.209-0.061 0.313 0.005 0.035 0.174 0.092 0.243 0.069 0.82-0.281 1.668-0.507 2.445-0.883 0.953-0.459 1.848-1.040 2.759-1.579 0.096-0.054 0.146-0.181 0.235-0.299zM11.545 19.383c-0.182 0.54-0.146 0.838-0.032 1.157 0.318 0.883 0.511 1.814 1.084 2.585 0.213 0.286 0.256 0.925 0.648 0.787 0.345-0.12-0.059-0.627-0.082-0.968-0.090-1.304-0.773-2.355-1.618-3.561zM17.697 3.141l0.085 0.128c0.474-0.176 0.952-0.343 1.421-0.532 2.468-0.947 3.474-1.369 4.476-1.799l-1.426 0.544c0.204-0.087 0.391-0.225 0.566-0.366 0.049-0.040 0.040-0.175 0.025-0.258-0.008-0.037-0.104-0.078-0.16-0.080-0.095 0.002-0.189 0.018-0.279 0.046-1.377 0.393-2.676 0.974-3.92 1.68-0.291 0.165-0.526 0.422-0.787 0.636zM41.887 17.148c0.083-0.097 0.149-0.137 0.153-0.183 0.134-1.421-0.016-2.829-0.21-4.234-0.009-0.070-0.107-0.171-0.174-0.18-0.073-0.009-0.187 0.052-0.232 0.117-0.073 0.105-0.118 0.225-0.132 0.352-0.073 1.158 0.003 2.321 0.226 3.46 0.044 0.23 0.233 0.433 0.367 0.668zM11.213 13.227c0.537-0.206 0.617-0.578 0.676-0.915 0.14-0.82 0.491-1.61 0.375-2.477-0.562 1.035-1.060 2.084-1.051 3.392h-0zM24.221 31.236c-1.204-0.535-1.531-0.591-2.604-0.442 0.455 0.174 0.864 0.448 1.276 0.453 0.429 0.006 0.894 0.534 1.329-0.011h-0z"></path>
<path d="M26.706 20.594c-0.824-0.014-1.39-0.361-1.809-1.029-0.39-0.624-1.039-0.947-1.634-1.332-0.75-0.484-1.36-1.030-1.532-2.012-0.12-0.666 0.019-1.244 0.288-1.769 0.226-0.439 0.629-0.847 1.052-1.109 0.459-0.283 0.84-0.55 1.052-1.073 0.24-0.602 0.845-0.638 1.38-0.746 0.504-0.102 1.017-0.167 1.514-0.295 0.68-0.174 1.297-0.12 1.794 0.412 0.384 0.412 0.832 0.708 1.332 0.958 0.52 0.26 0.691 0.563 0.529 1.107-0.111 0.368-0.004 0.62 0.133 0.914 0.15 0.321 0.303 0.647 0.407 0.986 0.343 1.128-0.052 2.077-1.106 2.58-0.654 0.311-1.154 0.726-1.316 1.456-0.065 0.294-0.248 0.461-0.507 0.537-0.521 0.153-1.050 0.279-1.577 0.416zM30.164 15.866c0.017-1.987-1.484-3.576-3.435-3.579-1.751 0-3.512 1.19-3.581 3.469-0.055 1.825 1.459 3.524 3.432 3.53 2.403 0.012 3.537-1.663 3.583-3.42zM23.13 17.766c0-0.255 0.024-0.385-0.004-0.503-0.259-1.080-0.427-2.149 0.16-3.189 0.042-0.074-0.055-0.229-0.088-0.346-0.115 0.037-0.254 0.045-0.341 0.117-0.97 0.799-1.403 2.718 0.273 3.92zM26.731 11.788c0.406 0.149 0.638 0.255 0.88 0.321 0.894 0.238 1.656 0.664 2.187 1.451 0.105 0.155 0.24 0.385 0.44 0.209 0.106-0.095 0.141-0.382 0.080-0.526-0.082-0.191-0.27-0.43-0.451-0.468-0.491-0.103-0.76-0.46-1.080-0.771-0.538-0.518-1.139-0.681-2.055-0.215zM26.676 19.611l-0.012-0.075c-0.257 0-0.517-0.023-0.771 0.009-0.131 0.016-0.249 0.127-0.373 0.196 0.113 0.1 0.21 0.257 0.34 0.289 0.692 0.176 1.391 0.213 2.074-0.055 0.117-0.046 0.247-0.106 0.32-0.2 0.065-0.080 0.086-0.223 0.073-0.331-0.005-0.040-0.167-0.101-0.247-0.088-0.469 0.074-0.936 0.167-1.403 0.254l-0.002 0.001zM30.219 17.573c0.48-0.089 0.694-0.361 0.722-0.778 0.021-0.352 0.015-0.705-0.015-1.057-0.008-0.092-0.137-0.175-0.21-0.263-0.107 0.101-0.324 0.238-0.304 0.299 0.195 0.609-0.213 1.155-0.194 1.798v0.001zM34.609 20.323c-0.028 0.014-0.139 0.108-0.259 0.121-0.11 0.013-0.27-0.024-0.338-0.101-0.322-0.359-0.642-0.75-0.946-1.154l-0.032-0.045c-0.080-0.109-0.113-0.401-0.067-0.426 0.15-0.083 0.443-0.169 0.508-0.098 0.386 0.427 0.726 0.897 1.074 1.358 0.034 0.046 0.024 0.125 0.059 0.346zM18.271 23.67c0.178 0.014 0.531 0.025 0.874 0.084 0.086 0.015 0.2 0.183 0.2 0.284s-0.099 0.274-0.185 0.295c-0.668 0.167-1.332 0.207-1.923-0.241-0.059-0.055-0.095-0.133-0.095-0.22 0-0.010 0-0.019 0.001-0.028l-0 0.001c0.013-0.067 0.116-0.16 0.186-0.165 0.256-0.022 0.513-0.010 0.942-0.010zM39.2 9.563l0.252 0.139c-0.071 0.129-0.115 0.336-0.22 0.373-0.406 0.157-0.9 0.302-1.409 0.411l-0.068 0.012c-0.144 0.028-0.354-0.114-0.487-0.232-0.153-0.136-0.062-0.431 0.132-0.461 0.569-0.088 1.142-0.155 1.798-0.242zM22.199 26.542c0.268 0.125 0.491 0.16 0.6 0.294 0.299 0.372 0.572 0.764 0.819 1.174 0.12 0.195 0.010 0.406-0.192 0.462-0.111 0.031-0.311-0.060-0.393-0.16-0.303-0.364-0.601-0.767-0.875-1.188l-0.030-0.049c-0.064-0.102 0.035-0.308 0.071-0.532zM32.681 11.018c0.017-0.114 0-0.244 0.053-0.294 0.072-0.066 0.226-0.12 0.3-0.085 0.101 0.049 0.167 0.182 0.237 0.286 0.194 0.292 0.385 0.584 0.569 0.883 0.083 0.134 0.193 0.276 0.2 0.42 0.008 0.133-0.073 0.306-0.173 0.398-0.056 0.051-0.285 0.018-0.341-0.053-0.37-0.471-0.813-0.913-0.846-1.555zM33.831 6.010c-0.080 0.481-0.112 0.836-0.205 1.175-0.059 0.183-0.17 0.345-0.32 0.465-0.106 0.086-0.291 0.073-0.44 0.105-0.012-0.14-0.055-0.286-0.030-0.419 0.078-0.41 0.182-0.815 0.276-1.221 0.007-0.032 0.005-0.066 0.014-0.096 0.073-0.246 0.233-0.433 0.487-0.331 0.128 0.051 0.188 0.276 0.218 0.323zM26.936 9.141c0.224 0.028 0.516 0.044 0.793 0.111 0.095 0.023 0.234 0.194 0.218 0.268-0.029 0.132-0.138 0.306-0.254 0.345-0.183 0.058-0.379 0.059-0.563 0.003-0.32-0.102-0.617-0.136-0.937-0.002-0.21 0.088-0.406-0.005-0.462-0.214-0.075-0.281 0.135-0.417 0.372-0.457 0.252-0.042 0.512-0.035 0.833-0.054zM31.924 22.972c-0.091 0.398-0.16 0.748-0.258 1.089-0.019 0.067-0.16 0.158-0.219 0.142-0.106-0.026-0.256-0.11-0.278-0.197-0.026-0.097-0.040-0.209-0.040-0.324 0-0.090 0.009-0.177 0.026-0.262l-0.001 0.008c0.075-0.35 0.149-0.682 0.008-1.039-0.068-0.171-0.048-0.444 0.211-0.444 0.14 0 0.34 0.174 0.403 0.317 0.102 0.229 0.109 0.499 0.149 0.71zM27.989 22.869c-0.052 0.093-0.077 0.204-0.146 0.251-0.421 0.291-0.843 0.584-1.286 0.838-0.114 0.065-0.312 0.025-0.457-0.018-0.212-0.063-0.256-0.343-0.080-0.455 0.342-0.231 0.822-0.531 1.31-0.82l0.162-0.089c0.080-0.046 0.24 0.004 0.343 0.055 0.070 0.035 0.1 0.149 0.153 0.237zM22.623 4.155c0.069 0.040 0.197 0.075 0.215 0.139 0.167 0.618 0.328 1.238 0.461 1.864 0.037 0.174-0.192 0.27-0.346 0.167-0.484-0.327-0.785-1.536-0.503-2.042 0.029-0.050 0.101-0.076 0.173-0.128zM28.598 5.911c-0.146-0.097-0.303-0.147-0.324-0.231-0.023-0.091 0.053-0.248 0.134-0.321 0.355-0.318 0.726-0.617 1.112-0.897 0.13-0.092 0.4-0.157 0.5-0.086 0.236 0.167 0.112 0.401-0.053 0.573-0.221 0.231-0.44 0.476-0.694 0.663-0.195 0.141-0.445 0.201-0.675 0.299zM19.404 9.178l-0.353 0.335c-0.101-0.11-0.251-0.201-0.293-0.331-0.121-0.342-0.274-0.862-0.41-1.389l-0.036-0.167c-0.018-0.072 0.040-0.219 0.1-0.243 0.098-0.041 0.259-0.056 0.334 0 0.146 0.108 0.314 0.254 0.362 0.417 0.126 0.425 0.192 0.87 0.297 1.377zM15.534 17.758c-0.325 0.597-0.571 1.208-1.175 1.533-0.101 0.055-0.326-0.015-0.435-0.102-0.185-0.147 0-0.27 0.090-0.395 0.283-0.391 0.545-0.8 0.847-1.176 0.078-0.097 0.275-0.144 0.408-0.131 0.091 0.009 0.166 0.164 0.265 0.272zM19.197 17.808c0.169 0.098 0.292 0.128 0.315 0.192 0.038 0.106 0.057 0.272 0 0.346-0.093 0.117-0.252 0.185-0.388 0.263-0.355 0.204-0.704 0.419-1.074 0.594-0.112 0.053-0.316 0.037-0.416-0.035-0.206-0.147-0.134-0.383 0.032-0.487 0.507-0.318 1.039-0.597 1.531-0.874zM37.533 15.107c-0.13 0.295-0.313 0.74-0.531 1.167-0.034 0.066-0.244 0.102-0.333 0.063-0.083-0.037-0.173-0.205-0.156-0.295 0.087-0.476 0.183-0.952 0.33-1.411 0.045-0.14 0.247-0.267 0.403-0.314 0.058-0.018 0.209 0.201 0.28 0.334 0.041 0.075 0.007 0.191 0.007 0.457zM15.432 11.562c0.574 0.517 0.506 1.218 0.569 1.866 0.012 0.12-0.137 0.293-0.256 0.38-0.062 0.046-0.316-0.027-0.322-0.070-0.071-0.474-0.148-1.15-0.206-1.832l-0.009-0.138c-0.005-0.056 0.131-0.125 0.224-0.205zM28.843 27.562c0.096 0.025 0.191 0.056 0.284 0.093 0.344 0.16 0.691 0.316 1.028 0.493 0.16 0.083 0.32 0.188 0.435 0.321 0.133 0.154-0.019 0.451-0.204 0.41-0.625-0.135-1.236-0.325-1.704-0.794-0.069-0.069-0.068-0.243-0.045-0.358 0.013-0.065 0.134-0.11 0.207-0.165zM21.231 11.751c0.033 0.104 0.146 0.265 0.107 0.366-0.21 0.535-0.453 1.058-0.701 1.578-0.030 0.064-0.16 0.121-0.237 0.11-0.068-0.009-0.16-0.103-0.178-0.175-0.131-0.579 0.283-1.615 0.744-1.876 0.047-0.027 0.123-0.004 0.265-0.004zM39.116 20.54c-0.072-0.046-0.222-0.101-0.3-0.209-0.032-0.043 0.069-0.239 0.156-0.302 0.336-0.252 0.723-0.512 1.123-0.753l0.064-0.036c0.11-0.065 0.34-0.069 0.421 0.003 0.075 0.068 0.086 0.321 0.018 0.414-0.343 0.48-0.776 0.846-1.483 0.883zM36.74 24.672c-0.297-0.031-0.426-0.034-0.549-0.062-0.052-0.012-0.131-0.074-0.131-0.114-0.001-0.008-0.001-0.017-0.001-0.026 0-0.086 0.026-0.167 0.069-0.234l-0.001 0.002c0.064-0.073 0.147-0.125 0.24-0.151 0.458-0.138 0.915-0.276 1.38-0.388 0.101-0.024 0.313 0.042 0.326 0.1 0.031 0.137-0.006 0.303-0.059 0.442-0.028 0.073-0.142 0.133-0.228 0.16-0.398 0.11-0.797 0.207-1.045 0.272zM22.964 21.356c-0.033 0.14-0.086 0.451-0.189 0.743-0.025 0.073-0.225 0.142-0.317 0.116s-0.2-0.178-0.197-0.274c0.009-0.541 0.036-1.083 0.091-1.622 0.012-0.117 0.16-0.221 0.246-0.331 0.102 0.109 0.268 0.205 0.294 0.329 0.058 0.279 0.046 0.573 0.072 1.039zM44.404 4.422c0-1.146 0.276-2.016 0.829-2.608 0.559-0.599 1.275-0.898 2.148-0.898s1.567 0.258 2.081 0.775c0.522 0.517 0.782 1.342 0.782 2.475s-0.276 1.99-0.829 2.57-1.29 0.869-2.214 0.869c-0.797 0-1.45-0.23-1.959-0.69-0.264-0.24-0.471-0.57-0.622-0.993-0.144-0.428-0.216-0.929-0.216-1.502zM47.352 1.012c-0.634 0-1.155 0.283-1.564 0.85-0.402 0.567-0.603 1.399-0.603 2.494s0.192 1.896 0.575 2.4c0.383 0.504 0.892 0.756 1.526 0.756 0.641 0 1.162-0.284 1.564-0.851 0.408-0.573 0.612-1.402 0.612-2.485 0-1.089-0.194-1.889-0.584-2.4-0.383-0.51-0.892-0.765-1.526-0.765zM51.873 7.569h-0.782v-6.614h0.782v3.042h3.061v-3.042h0.782v6.614h-0.782v-3.477h-3.061v3.477zM59.735 7.569h-0.123l0.819-6.614h0.311l1.978 6.113 1.969-6.113h0.311l0.819 6.614h-0.782l-0.65-5.292-1.705 5.292h-0.594l-1.724-5.225-0.631 5.225zM71.038 0.955c0.119 0.119 0.179 0.274 0.179 0.463 0 0.158-0.035 0.318-0.104 0.482l-1.686 3.43v2.239h-0.782v-2.031l-1.884-4.583h0.801l1.799 4.261 1.639-3.317c0.069-0.158 0.104-0.321 0.104-0.491s-0.047-0.302-0.141-0.397l0.075-0.057zM1.328 9.307c0.487-0.022 0.963-0.033 1.427-0.033 0.476 0 0.974 0.050 1.494 0.15 0.531 0.1 1.052 0.288 1.56 0.566 0.518 0.264 0.955 0.617 1.306 1.042l0.005 0.007c0.365 0.422 0.658 0.983 0.879 1.682s0.332 1.548 0.332 2.548c0 0.999-0.166 1.898-0.498 2.697-0.321 0.788-0.764 1.393-1.328 1.815-1.095 0.821-2.418 1.232-3.967 1.232-0.542 0-1.112-0.023-1.71-0.067h-0.83v-11.638h1.328zM1.377 20.812c0.233 0.023 0.526 0.033 0.88 0.033s0.62-0.006 0.797-0.017c0.177-0.011 0.421-0.055 0.73-0.133 0.33-0.094 0.617-0.214 0.885-0.361l-0.022 0.011c0.266-0.144 0.542-0.355 0.83-0.632 0.299-0.291 0.553-0.625 0.753-0.994l0.011-0.022c0.476-0.91 0.714-2.098 0.714-3.564 0-1.043-0.127-1.943-0.382-2.697-0.255-0.766-0.548-1.332-0.88-1.698-0.321-0.363-0.714-0.656-1.157-0.857l-0.022-0.009c-0.465-0.222-0.836-0.35-1.112-0.383-0.271-0.032-0.585-0.050-0.904-0.050-0.021 0-0.041 0-0.062 0l0.003-0c-0.365 0-0.719 0.017-1.062 0.050v11.323zM44.673 20.945h-0.216v-11.656h0.564l6.905 10.773v-10.773h0.216v11.656h-1.212l-6.258-9.658v9.658zM62.364 9.29h0.216v6.66c0 1.743-0.343 3.025-1.029 3.846-0.686 0.81-1.583 1.216-2.689 1.216-0.697 0-1.289-0.061-1.776-0.183-0.487-0.133-0.946-0.372-1.378-0.716-0.885-0.688-1.328-2.076-1.328-4.163v-6.66h1.378v6.644c0 2.020 0.304 3.369 0.913 4.046 0.31 0.333 0.631 0.561 0.963 0.682 0.343 0.122 0.752 0.183 1.228 0.183 1.062 0 1.909-0.389 2.539-1.166 0.642-0.788 0.963-2.037 0.963-3.747v-6.643zM68.242 20.945h-1.378v-11.489h-2.872v-0.166h7.138v0.167h-2.888v11.488z"></path>
</symbol>
<symbol id="icon-map" viewBox="0 0 23 32">
<path d="M11.738 1.195c6.47 0 11.733 5.261 11.733 11.733 0 2.56-0.811 4.992-2.34 7.031l-8.67 11.678c-0.021 0.030-0.055 0.041-0.079 0.064-0.161 0.183-0.396 0.297-0.657 0.297-0.29 0-0.547-0.141-0.707-0.359l-0.002-0.002c-2.498-3.328-7.074-9.551-8.832-11.898l-0.004-0.006-0.011-0.013c-1.354-1.879-2.165-4.227-2.165-6.764 0-0.011 0-0.021 0-0.032v0.002c0-6.47 5.263-11.731 11.733-11.731zM11.738 19.255c3.491-0.010 6.319-2.837 6.33-6.326v-0.001c-0.008-3.493-2.837-6.322-6.329-6.332h-0.001c-3.492 0.010-6.32 2.838-6.33 6.329v0.001c0.010 3.492 2.838 6.32 6.329 6.33h0.001z"></path>
</symbol>
<symbol id="icon-people" viewBox="0 0 35 32">
<path fill="#674d40" style="fill: var(--color1, #674d40)" d="M11.848 0.008c-3.684 0.006-6.668 2.991-6.674 6.674v0.001c0.005 3.684 2.99 6.67 6.674 6.676h0.001c3.685-0.005 6.67-2.991 6.676-6.675v-0c-0.006-3.684-2.991-6.669-6.675-6.674h-0.001zM11.848 12.239c-3.071-0.004-5.559-2.493-5.561-5.563v-0c0.007-3.068 2.492-5.553 5.559-5.561h0.001c3.071 0.002 5.56 2.49 5.564 5.56v0c-0.005 3.070-2.491 5.557-5.56 5.564h-0.001zM25.52 2.779c-2.766 0.002-5.008 2.244-5.010 5.010v0c0.003 2.765 2.244 5.006 5.010 5.009h0c2.765-0.003 5.006-2.244 5.009-5.008v-0c-0.002-2.766-2.243-5.007-5.008-5.010h-0zM25.52 11.692c-2.152-0.002-3.896-1.745-3.898-3.896v-0c0.002-2.152 1.746-3.896 3.898-3.898h0c2.152 0.002 3.895 1.746 3.897 3.898v0c-0.002 2.151-1.745 3.894-3.896 3.897h-0z"></path>
<path fill="#674d40" style="fill: var(--color1, #674d40)" d="M34.481 20.142c-0.505-3.043-2.396-5.61-5.617-6.954 0 0-1.427 1.079-3.345 1.044-2.096-0.040-3.345-1.044-3.345-1.044s-1.556 0.58-2.812 1.788c-1.16-1.031-3.119-1.87-3.119-1.87s-1.795 1.364-4.401 1.344c-2.738-0.020-4.39-1.344-4.39-1.344s-5.917 2.034-7.166 8.935c0 0-1.338 3.658 1.76 9.124h19.61s1.392-2.423 1.638-3.897h9.753c2.395-3.631 1.434-7.126 1.434-7.126zM20.967 30.053h-18.229c-2.382-4.525-1.352-7.828-1.352-7.828 0.598-3.51 2.856-6.388 5.922-7.835l0.064-0.027c1.285 0.756 2.831 1.203 4.481 1.203s3.196-0.447 4.523-1.226l-0.042 0.023c3.13 1.475 5.387 4.353 5.976 7.8l0.009 0.063c-0.007 0 0.983 4.067-1.351 7.828zM32.4 26.156h-8.88c0.341-1.966-0.109-4.117-0.109-4.117-0.421-2.485-1.574-4.647-3.228-6.314l0.001 0.001c0.573-0.519 1.207-0.948 1.903-1.283 2.096 1.2 4.765 1.2 6.86 0 2.32 1.12 3.991 3.268 4.43 5.836l0.007 0.047s0.812 2.756-0.983 5.828z"></path>
</symbol>
<symbol id="icon-phone" viewBox="0 0 32 32">
<path d="M29.457 21.021c-0.010 0-0.022 0-0.033 0-2.030 0-3.983-0.333-5.806-0.947l0.128 0.037c-0.894-0.305-1.993-0.025-2.538 0.535l-3.602 2.72c-4.176-2.23-6.748-4.802-8.946-8.946l2.636-3.508c0.47-0.469 0.761-1.117 0.761-1.833 0-0.282-0.045-0.553-0.128-0.807l0.005 0.018c-0.578-1.699-0.912-3.655-0.912-5.69 0-0.011 0-0.022 0-0.033v0.002c-0.002-1.417-1.158-2.57-2.572-2.57h-5.881c-1.417 0-2.57 1.153-2.57 2.57 0 16.244 13.213 29.459 29.457 29.459 1.417 0 2.57-1.153 2.57-2.57v-5.864c0-1.419-1.153-2.572-2.57-2.572z"></path>
</symbol>
<symbol id="icon-rate4" viewBox="0 0 181 32">
<path fill="#ab816c" style="fill: var(--color2, #ab816c)" d="M14.732 3.913c0.4-1.228 2.137-1.228 2.536 0l2.025 6.232c0.179 0.538 0.678 0.92 1.267 0.92h6.554c1.292 0 1.828 1.653 0.784 2.413l-5.302 3.851c-0.335 0.245-0.549 0.637-0.549 1.079 0 0.147 0.024 0.289 0.068 0.422l-0.003-0.009 2.024 6.232c0.4 1.229-1.007 2.251-2.051 1.491l-5.302-3.851c-0.217-0.159-0.489-0.255-0.784-0.255s-0.567 0.096-0.788 0.257l0.004-0.003-5.302 3.851c-1.044 0.76-2.451-0.263-2.051-1.491l2.024-6.232c0.041-0.123 0.065-0.265 0.065-0.412 0-0.442-0.215-0.833-0.546-1.076l-0.004-0.003-5.301-3.851c-1.044-0.76-0.507-2.413 0.784-2.413h6.552c0 0 0 0 0 0 0.589 0 1.088-0.381 1.265-0.911l0.003-0.009 2.025-6.232z"></path>
<path fill="none" stroke="#ab816c" style="stroke: var(--color2, #ab816c)" stroke-linejoin="miter" stroke-linecap="butt" stroke-miterlimit="4" stroke-width="1.3333" d="M164.703 4.119c0.089-0.271 0.339-0.463 0.635-0.463s0.546 0.192 0.633 0.458l0.001 0.005 2.024 6.231c0.268 0.809 1.018 1.383 1.902 1.383 0 0 0 0 0 0h6.552c0.368 0 0.666 0.299 0.666 0.667 0 0.221-0.107 0.416-0.272 0.537l-0.002 0.001-5.302 3.852c-0.502 0.368-0.825 0.955-0.825 1.618 0 0.221 0.036 0.433 0.102 0.632l-0.004-0.014 2.025 6.232c0.021 0.062 0.033 0.133 0.033 0.207 0 0.368-0.298 0.667-0.667 0.667-0.148 0-0.284-0.048-0.395-0.129l0.002 0.001-5.3-3.852c-0.326-0.239-0.734-0.382-1.176-0.382s-0.851 0.143-1.182 0.386l0.006-0.004-5.3 3.852c-0.109 0.080-0.245 0.128-0.393 0.128-0.368 0-0.667-0.299-0.667-0.667 0-0.075 0.012-0.146 0.035-0.213l-0.001 0.005 2.025-6.231c0.062-0.185 0.098-0.397 0.098-0.618 0-0.663-0.322-1.25-0.819-1.614l-0.006-0.004-5.302-3.852c-0.167-0.123-0.274-0.318-0.274-0.539 0-0.368 0.298-0.666 0.666-0.667h6.552c0 0 0 0 0 0 0.884 0 1.634-0.573 1.898-1.369l0.004-0.014 2.024-6.231z"></path>
<path fill="#ab816c" style="fill: var(--color2, #ab816c)" d="M126.736 3.913c0.4-1.228 2.137-1.228 2.536 0l2.025 6.232c0.179 0.538 0.678 0.92 1.267 0.92h6.554c1.292 0 1.828 1.653 0.784 2.413l-5.302 3.851c-0.335 0.245-0.549 0.637-0.549 1.079 0 0.147 0.024 0.289 0.068 0.422l-0.003-0.009 2.024 6.232c0.4 1.229-1.007 2.251-2.051 1.491l-5.302-3.851c-0.217-0.159-0.489-0.255-0.784-0.255s-0.567 0.096-0.788 0.257l0.004-0.003-5.302 3.851c-1.044 0.76-2.451-0.263-2.051-1.491l2.024-6.232c0.041-0.123 0.065-0.265 0.065-0.412 0-0.442-0.215-0.833-0.546-1.076l-0.004-0.003-5.302-3.851c-1.045-0.76-0.507-2.413 0.784-2.413h6.552c0 0 0 0 0 0 0.589 0 1.088-0.381 1.265-0.911l0.003-0.009 2.025-6.232zM89.401 3.913c0.4-1.228 2.137-1.228 2.536 0l2.025 6.232c0.179 0.538 0.678 0.92 1.267 0.92h6.554c1.292 0 1.829 1.653 0.784 2.413l-5.302 3.851c-0.335 0.245-0.549 0.637-0.549 1.079 0 0.147 0.024 0.289 0.068 0.422l-0.003-0.009 2.024 6.232c0.4 1.229-1.007 2.251-2.051 1.491l-5.302-3.851c-0.217-0.159-0.489-0.255-0.784-0.255s-0.567 0.096-0.788 0.257l0.004-0.003-5.302 3.851c-1.044 0.76-2.451-0.263-2.051-1.491l2.024-6.232c0.041-0.123 0.065-0.265 0.065-0.412 0-0.442-0.215-0.833-0.546-1.076l-0.004-0.003-5.302-3.851c-1.044-0.76-0.507-2.413 0.784-2.413h6.552c0 0 0 0 0 0 0.589 0 1.088-0.381 1.265-0.911l0.003-0.009 2.025-6.232zM52.067 3.913c0.4-1.228 2.137-1.228 2.536 0l2.025 6.232c0.179 0.538 0.678 0.92 1.267 0.92h6.554c1.292 0 1.828 1.653 0.784 2.413l-5.301 3.851c-0.335 0.245-0.549 0.637-0.549 1.079 0 0.147 0.024 0.289 0.068 0.422l-0.003-0.009 2.024 6.232c0.4 1.229-1.007 2.251-2.051 1.491l-5.301-3.851c-0.217-0.159-0.489-0.255-0.784-0.255s-0.567 0.096-0.788 0.257l0.004-0.003-5.3 3.851c-1.045 0.76-2.452-0.263-2.053-1.491l2.027-6.232c0.041-0.123 0.065-0.264 0.065-0.411 0-0.442-0.215-0.834-0.547-1.077l-0.004-0.003-5.301-3.851c-1.045-0.76-0.507-2.413 0.784-2.413h6.552c0 0 0 0 0 0 0.589 0 1.088-0.381 1.265-0.911l0.003-0.009 2.025-6.232z"></path>
</symbol>
<symbol id="icon-rate5" viewBox="0 0 181 32">
<path fill="#ab816c" style="fill: var(--color2, #ab816c)" d="M14.732 3.913c0.4-1.228 2.137-1.228 2.536 0l2.025 6.232c0.179 0.538 0.678 0.92 1.267 0.92h6.554c1.292 0 1.828 1.653 0.784 2.413l-5.302 3.851c-0.335 0.245-0.549 0.637-0.549 1.079 0 0.147 0.024 0.289 0.068 0.422l-0.003-0.009 2.024 6.232c0.4 1.229-1.007 2.251-2.051 1.491l-5.302-3.851c-0.217-0.159-0.489-0.255-0.784-0.255s-0.567 0.096-0.788 0.257l0.004-0.003-5.302 3.851c-1.044 0.76-2.451-0.263-2.051-1.491l2.024-6.232c0.041-0.123 0.065-0.265 0.065-0.412 0-0.442-0.215-0.833-0.546-1.076l-0.004-0.003-5.301-3.851c-1.044-0.76-0.507-2.413 0.784-2.413h6.552c0 0 0 0 0 0 0.589 0 1.088-0.381 1.265-0.911l0.003-0.009 2.025-6.232zM164.070 3.913c0.399-1.228 2.137-1.228 2.536 0l2.025 6.232c0.179 0.539 0.679 0.92 1.268 0.92 0 0 0 0 0 0h6.552c1.292 0 1.828 1.653 0.784 2.413l-5.302 3.851c-0.335 0.245-0.549 0.637-0.549 1.079 0 0.147 0.024 0.289 0.068 0.422l-0.003-0.009 2.024 6.232c0.4 1.229-1.007 2.251-2.051 1.491l-5.302-3.851c-0.217-0.159-0.489-0.255-0.784-0.255s-0.567 0.096-0.788 0.257l0.004-0.003-5.302 3.851c-1.044 0.76-2.451-0.263-2.051-1.491l2.024-6.232c0.041-0.123 0.065-0.265 0.065-0.412 0-0.442-0.215-0.833-0.546-1.076l-0.004-0.003-5.302-3.851c-1.044-0.76-0.508-2.413 0.784-2.413h6.552c0 0 0 0 0 0 0.589 0 1.088-0.381 1.265-0.911l0.003-0.009 2.025-6.232zM126.736 3.913c0.4-1.228 2.137-1.228 2.536 0l2.025 6.232c0.179 0.538 0.678 0.92 1.267 0.92h6.554c1.292 0 1.828 1.653 0.784 2.413l-5.302 3.851c-0.335 0.245-0.549 0.637-0.549 1.079 0 0.147 0.024 0.289 0.068 0.422l-0.003-0.009 2.024 6.232c0.4 1.229-1.007 2.251-2.051 1.491l-5.302-3.851c-0.217-0.159-0.489-0.255-0.784-0.255s-0.567 0.096-0.788 0.257l0.004-0.003-5.302 3.851c-1.044 0.76-2.451-0.263-2.051-1.491l2.024-6.232c0.041-0.123 0.065-0.265 0.065-0.412 0-0.442-0.215-0.833-0.546-1.076l-0.004-0.003-5.302-3.851c-1.045-0.76-0.507-2.413 0.784-2.413h6.552c0 0 0 0 0 0 0.589 0 1.088-0.381 1.265-0.911l0.003-0.009 2.025-6.232zM89.401 3.913c0.4-1.228 2.137-1.228 2.536 0l2.025 6.232c0.179 0.538 0.678 0.92 1.267 0.92h6.554c1.292 0 1.829 1.653 0.784 2.413l-5.302 3.851c-0.335 0.245-0.549 0.637-0.549 1.079 0 0.147 0.024 0.289 0.068 0.422l-0.003-0.009 2.024 6.232c0.4 1.229-1.007 2.251-2.051 1.491l-5.302-3.851c-0.217-0.159-0.489-0.255-0.784-0.255s-0.567 0.096-0.788 0.257l0.004-0.003-5.302 3.851c-1.044 0.76-2.451-0.263-2.051-1.491l2.024-6.232c0.041-0.123 0.065-0.265 0.065-0.412 0-0.442-0.215-0.833-0.546-1.076l-0.004-0.003-5.302-3.851c-1.044-0.76-0.507-2.413 0.784-2.413h6.552c0 0 0 0 0 0 0.589 0 1.088-0.381 1.265-0.911l0.003-0.009 2.025-6.232zM52.067 3.913c0.4-1.228 2.137-1.228 2.536 0l2.025 6.232c0.179 0.538 0.678 0.92 1.267 0.92h6.554c1.292 0 1.828 1.653 0.784 2.413l-5.301 3.851c-0.335 0.245-0.549 0.637-0.549 1.079 0 0.147 0.024 0.289 0.068 0.422l-0.003-0.009 2.024 6.232c0.4 1.229-1.007 2.251-2.051 1.491l-5.301-3.851c-0.217-0.159-0.489-0.255-0.784-0.255s-0.567 0.096-0.788 0.257l0.004-0.003-5.3 3.851c-1.045 0.76-2.452-0.263-2.053-1.491l2.027-6.232c0.041-0.123 0.065-0.264 0.065-0.411 0-0.442-0.215-0.834-0.547-1.077l-0.004-0.003-5.301-3.851c-1.045-0.76-0.507-2.413 0.784-2.413h6.552c0 0 0 0 0 0 0.589 0 1.088-0.381 1.265-0.911l0.003-0.009 2.025-6.232z"></path>
</symbol>
<symbol id="icon-twitter" viewBox="0 0 40 32">
<path d="M40.447 3.795c-1.391 0.608-3.004 1.056-4.692 1.265l-0.086 0.009c1.71-0.993 3.001-2.549 3.632-4.409l0.017-0.057c-1.515 0.891-3.278 1.571-5.151 1.939l-0.107 0.017c-1.531-1.578-3.671-2.557-6.040-2.557-0.007 0-0.014 0-0.021 0h0.001c-4.586 0-8.282 3.63-8.282 8.081 0 0.64 0.056 1.257 0.192 1.844-6.875-0.317-12.945-3.519-17.066-8.416l-0.029-0.036c-0.71 1.166-1.131 2.575-1.134 4.083v0.001c0 2.798 1.478 5.278 3.682 6.714-1.378-0.036-2.663-0.4-3.79-1.016l0.044 0.022v0.089c0 3.927 2.875 7.186 6.643 7.938-0.674 0.18-1.411 0.266-2.174 0.266-0.531 0-1.067-0.030-1.571-0.138 1.075 3.2 4.124 5.551 7.749 5.629-2.81 2.15-6.374 3.445-10.24 3.445-0.014 0-0.028-0-0.042-0h0.002c-0.681 0-1.333-0.029-1.985-0.11 3.676 2.309 8.029 3.625 12.722 3.625 15.259 0 23.601-12.316 23.601-22.991 0-0.357-0.013-0.703-0.030-1.045 1.639-1.15 3.018-2.541 4.12-4.138l0.036-0.055z"></path>
</symbol>
</defs>
</svg>
