<!-- Generated by IcoMoon.io -->
<svg version="1.1" xmlns="http://www.w3.org/2000/svg" width="47" height="32" viewBox="0 0 47 32">
<title>chat</title>
<path fill="#674d40" d="M35.994 13.848c0-8.364-8.814-13.846-17.614-13.846-8.839 0-17.62 5.508-17.62 13.846 0 3.154 1.382 6.239 3.89 8.686 0.068 0.068 0.11 0.163 0.11 0.267 0 0.037-0.005 0.072-0.015 0.105l0.001-0.003c-0.789 2.887-2.654 5.495-3.419 6.482-0.131 0.166-0.21 0.379-0.21 0.61 0 0.165 0.040 0.32 0.111 0.456l-0.003-0.005c0.17 0.339 0.509 0.546 0.888 0.546h0.025c3.748-0.093 8.091-1.149 10.776-3.79 0.069-0.067 0.163-0.109 0.267-0.109 0.033 0 0.065 0.004 0.095 0.012l-0.003-0.001c1.65 0.391 3.368 0.589 5.105 0.589 8.834 0 17.617-5.505 17.617-13.846zM13.584 25.797c-0.121-0.031-0.261-0.048-0.405-0.048-0.47 0-0.896 0.189-1.206 0.495l0-0c-2.684 2.641-7.069 3.24-9.144 3.374 0.947-1.309 2.488-3.713 3.212-6.361 0.039-0.137 0.062-0.294 0.062-0.457 0-0.481-0.197-0.916-0.515-1.228l-0-0c-2.28-2.223-3.486-4.894-3.486-7.726 0-6.893 7.302-12.503 16.277-12.503 8.974 0 16.276 5.61 16.276 12.505 0 6.893-7.302 12.503-16.276 12.503-1.634 0-3.247-0.186-4.795-0.553z"></path>
<path fill="#674d40" d="M40.311 24.994c3.911-1.977 6.246-5.345 6.246-9.012 0-5.182-4.685-9.61-11.137-10.529-0.028-0.004-0.061-0.007-0.095-0.007-0.37 0-0.671 0.3-0.671 0.671 0 0.337 0.249 0.616 0.573 0.664l0.004 0c5.786 0.823 9.985 4.694 9.985 9.201 0 3.15-2.060 6.070-5.51 7.814-0.544 0.28-0.91 0.837-0.91 1.48 0 0.121 0.013 0.24 0.038 0.354l-0.002-0.011c0.327 1.536 1.023 2.961 1.58 3.925-3.962-0.659-5.463-2.561-5.937-3.383-0.292-0.496-0.824-0.823-1.431-0.823-0.001 0-0.001 0-0.002 0h-0.055c-0.742 0-1.488-0.051-2.213-0.153-0.015-0.001-0.031-0.002-0.049-0.002-0.371 0-0.672 0.301-0.672 0.672 0 0.322 0.227 0.592 0.53 0.657l0.004 0.001c0.786 0.111 1.593 0.166 2.401 0.166h0.054c0.113 0 0.217 0.058 0.271 0.153 1.817 3.148 5.994 3.951 7.705 4.152 0.378 0.044 0.738-0.13 0.94-0.451 0.094-0.146 0.149-0.324 0.149-0.515 0-0.196-0.058-0.378-0.159-0.53l0.002 0.004c-0.515-0.803-1.435-2.411-1.806-4.152-0.004-0.019-0.007-0.041-0.007-0.064 0-0.123 0.070-0.229 0.172-0.281l0.002-0.001zM7.939 11.447c-1.284 0.001-2.325 1.041-2.326 2.325v0c0.002 1.284 1.042 2.324 2.326 2.325h0c1.283-0.002 2.323-1.042 2.325-2.325v-0c-0.002-1.283-1.042-2.323-2.325-2.325h-0zM7.939 14.756c-0.011 0-0.024 0.001-0.037 0.001-0.544 0-0.985-0.441-0.985-0.985s0.441-0.985 0.985-0.985c0.014 0 0.027 0 0.040 0.001l-0.002-0c0.527 0.021 0.946 0.454 0.946 0.984s-0.42 0.964-0.946 0.984l-0.002 0zM14.571 11.447c-1.283 0.002-2.323 1.042-2.325 2.325v0c0.002 1.283 1.042 2.323 2.325 2.325h0c1.283-0.002 2.323-1.042 2.325-2.325v-0c-0.002-1.283-1.042-2.323-2.325-2.325h-0zM14.571 14.756c-0.011 0-0.024 0.001-0.036 0.001-0.544 0-0.985-0.441-0.985-0.985s0.441-0.985 0.985-0.985c0.014 0 0.028 0 0.041 0.001l-0.002-0c0.527 0.022 0.946 0.454 0.946 0.984s-0.421 0.964-0.947 0.984l-0.002 0zM21.204 11.447c-1.283 0.002-2.323 1.042-2.325 2.325v0c0.002 1.283 1.042 2.323 2.325 2.325h0c1.283-0.002 2.323-1.042 2.325-2.325v-0c-0.002-1.283-1.042-2.323-2.325-2.325h-0zM21.204 14.756c-0.011 0-0.024 0.001-0.036 0.001-0.544 0-0.985-0.441-0.985-0.985s0.441-0.985 0.985-0.985c0.014 0 0.028 0 0.041 0.001l-0.002-0c0.527 0.022 0.946 0.454 0.946 0.984s-0.421 0.964-0.947 0.984l-0.002 0zM27.837 11.447c-1.283 0.002-2.323 1.042-2.325 2.325v0c0.002 1.283 1.042 2.323 2.325 2.325h0c1.283-0.002 2.323-1.042 2.325-2.325v-0c-0.002-1.283-1.042-2.323-2.325-2.325h-0zM27.837 14.756c-0.011 0-0.024 0.001-0.036 0.001-0.544 0-0.985-0.441-0.985-0.985s0.441-0.985 0.985-0.985c0.014 0 0.028 0 0.041 0.001l-0.002-0c0.527 0.022 0.946 0.454 0.946 0.984s-0.421 0.964-0.947 0.984l-0.002 0z"></path>
</svg>
