<!-- Generated by IcoMoon.io -->
<svg version="1.1" xmlns="http://www.w3.org/2000/svg" width="19" height="32" viewBox="0 0 19 32">
<title>facebook</title>
<path d="M16.659 0.007l-4.153-0.007c-4.666 0-7.681 3.093-7.681 7.882v3.634h-4.177c-0.36 0-0.652 0.292-0.652 0.652v0 5.266c0 0.361 0.293 0.654 0.652 0.654h4.177v13.286c0 0.361 0.292 0.652 0.652 0.652h5.448c0.001 0 0.001 0 0.002 0 0.36 0 0.652-0.292 0.652-0.652 0 0 0 0 0 0v0-13.288h4.882c0 0 0.001 0 0.002 0 0.36 0 0.652-0.292 0.652-0.652 0-0.001 0-0.001 0-0.002v0-5.262c-0.001-0.36-0.292-0.651-0.652-0.652h-4.883v-3.083c0-1.48 0.354-2.232 2.281-2.232h2.798c0 0 0 0 0 0 0.36 0 0.652-0.292 0.652-0.652 0-0.001 0-0.001 0-0.002v0-4.888c0 0 0 0 0 0 0-0.36-0.291-0.652-0.65-0.654h-0z"></path>
</svg>
