<!-- Generated by IcoMoon.io -->
<svg version="1.1" xmlns="http://www.w3.org/2000/svg" width="32" height="32" viewBox="0 0 32 32">
<title>instagramm</title>
<path d="M16.328 32.026h-0.319c-0.141 0.001-0.307 0.001-0.474 0.001-2.326 0-4.636-0.071-6.926-0.212l0.314 0.015c-2.068-0.126-3.956-0.841-5.46-2.067-1.45-1.183-2.441-2.783-2.945-4.753-0.438-1.718-0.46-3.402-0.484-5.032-0.017-1.168-0.032-2.554-0.035-3.963 0.003-1.416 0.020-2.801 0.035-3.97 0.024-1.63 0.045-3.314 0.484-5.032 0.504-1.972 1.493-3.57 2.945-4.753 1.504-1.225 3.391-1.94 5.461-2.067 1.979-0.125 4.291-0.197 6.62-0.197 0.166 0 0.331 0 0.497 0.001l-0.026-0c0.135-0.001 0.295-0.001 0.454-0.001 2.333 0 4.65 0.071 6.947 0.212l-0.315-0.015c2.068 0.126 3.956 0.841 5.46 2.067 1.45 1.183 2.441 2.781 2.945 4.753 0.438 1.718 0.46 3.402 0.484 5.032 0.017 1.168 0.034 2.554 0.035 3.963v0.007c-0.003 1.407-0.020 2.793-0.035 3.963-0.024 1.63-0.046 3.314-0.484 5.032-0.504 1.97-1.493 3.57-2.945 4.753-1.504 1.225-3.391 1.94-5.461 2.067-1.967 0.125-4.265 0.196-6.58 0.196-0.067 0-0.134-0-0.201-0h0.010zM16.010 29.523c0.141 0.001 0.308 0.001 0.476 0.001 2.275 0 4.533-0.070 6.773-0.207l-0.308 0.015c1.563-0.094 2.919-0.602 4.029-1.507 1.028-0.838 1.736-1.994 2.102-3.434 0.366-1.429 0.388-2.963 0.406-4.447 0.017-1.163 0.034-2.537 0.037-3.933-0.003-1.396-0.020-2.771-0.037-3.933-0.020-1.483-0.040-3.017-0.405-4.447-0.369-1.441-1.075-2.596-2.102-3.434-1.113-0.905-2.468-1.413-4.032-1.507-1.941-0.123-4.209-0.193-6.494-0.193-0.154 0-0.308 0-0.463 0.001l0.024-0c-0.135-0.001-0.294-0.001-0.453-0.001-2.282 0-4.547 0.070-6.795 0.208l0.308-0.015c-1.564 0.094-2.921 0.602-4.032 1.507-1.027 0.838-1.733 1.992-2.1 3.434-0.366 1.429-0.388 2.963-0.406 4.447-0.017 1.163-0.034 2.538-0.037 3.936 0.003 1.389 0.020 2.766 0.037 3.927 0.020 1.483 0.040 3.017 0.405 4.447 0.369 1.441 1.075 2.596 2.102 3.435 1.112 0.905 2.468 1.413 4.032 1.507 2.201 0.135 4.47 0.197 6.933 0.19zM15.951 23.833c-4.317-0.005-7.815-3.503-7.819-7.819v-0c0.005-4.317 3.503-7.815 7.819-7.819h0c4.317 0.005 7.815 3.503 7.819 7.819v0c-0.005 4.317-3.504 7.816-7.821 7.819h-0zM15.951 10.697c-2.935 0.003-5.314 2.381-5.318 5.316v0c0.004 2.935 2.383 5.314 5.318 5.316h0c2.935-0.004 5.313-2.382 5.316-5.316v-0c-0.004-2.935-2.382-5.313-5.316-5.316h-0zM24.645 5.691c-1.037 0-1.877 0.84-1.877 1.877s0.84 1.877 1.877 1.877v0c1.036 0 1.876-0.84 1.876-1.876s-0.84-1.876-1.876-1.876v0z"></path>
</svg>
