<!-- Generated by IcoMoon.io -->
<svg version="1.1" xmlns="http://www.w3.org/2000/svg" width="71" height="32" viewBox="0 0 71 32">
<title>logo</title>
<path d="M42.265 15.998c0 0.261-0.008 0.521 0 0.782 0.089 2.653-0.736 5.043-2.060 7.297-0.362 0.591-0.778 1.348-1.165 2.123l-0.086 0.19c-0.316 0.649-0.754 1.104-1.436 1.37-0.381 0.148-0.734 0.405-1.053 0.669-1.469 1.218-3.136 2.091-4.919 2.705-1.184 0.408-2.403 0.767-3.69 0.751-0.383-0.005-0.768 0.114-1.152 0.115s-0.768-0.124-1.149-0.108c-1.659 0.072-3.196-0.441-4.721-0.979-1.665-0.586-3.136-1.513-4.519-2.617-1.952-1.558-3.343-3.52-4.366-5.766-0.551-1.211-1-2.46-1.126-3.804-0.021-0.223-0.095-0.444-0.16-0.66-0.464-1.507-0.197-2.985 0.090-4.487 0.22-1.148 0.445-2.283 0.873-3.373 1.13-2.884 2.925-5.246 5.411-7.1 2.073-1.545 4.392-2.494 6.914-2.903 2.894-0.468 5.718-0.131 8.46 0.963 1.368 0.548 2.658 1.241 3.785 2.159 1.051 0.856 1.999 1.859 2.895 2.883 0.812 0.929 1.388 2.034 1.903 3.162 0.804 1.762 1.328 3.587 1.275 5.546-0.012 0.362-0.003 0.721-0.004 1.080zM41.154 12.428c-0.080-0.616-0.13-1.33-0.28-2.022-0.427-1.992-1.576-3.548-3.107-4.818-0.87-0.722-1.817-1.349-2.752-1.988-0.316-0.216-0.684-0.415-1.053-0.481-0.95-0.176-1.91-0.34-2.873-0.389-1.671-0.086-3.172-0.518-4.433-1.685-0.929-0.858-1.94-0.941-2.905-0.186-1.094 0.855-2.339 1.358-3.608 1.855-0.93 0.364-1.826 0.823-2.72 1.276-0.747 0.38-1.182 0.971-1.172 1.867 0.006 0.503-0.223 0.923-0.687 1.201-0.425 0.258-0.788 0.513-1.133 0.789l0.021-0.016c-0.989 0.781-1.76 1.661-1.926 3.028-0.132 1.080-0.457 2.148-1.194 3.038-0.238 0.293-0.396 0.659-0.44 1.059l-0.001 0.009c-0.068 0.808-0.040 1.625-0.020 2.438 0.005 0.217 0.099 0.45 0.21 0.642 0.293 0.519 0.568 0.948 0.863 1.362l-0.032-0.047c0.724 1.011 1.354 2.046 1.499 3.33 0.141 1.244 0.739 2.257 1.751 3.030 1.466 1.121 2.88 2.311 4.368 3.403 0.8 0.588 1.656 1.102 2.711 1.221s2.089 0.407 3.035 0.941c0.198 0.107 0.416 0.174 0.64 0.197 1.334 0.144 2.57-0.188 3.742-0.814 0.265-0.147 0.635-0.329 1.012-0.5l0.115-0.046c0.916-0.412 1.931-0.682 2.729-1.255 0.888-0.639 1.837-0.923 2.855-1.101 0.44-0.078 0.8-0.26 1.086-0.588 0.342-0.39 0.658-0.802 1.014-1.179 0.369-0.389 0.635-0.802 0.699-1.356 0.099-0.849 0.461-1.599 0.92-2.32 0.778-1.217 1.22-2.562 1.45-3.993 0.060-0.375 0.095-0.692-0.090-1.022-0.535-0.953-0.317-2.035-0.486-3.049-0.086-0.549 0.112-1.148 0.194-1.832l-0.002 0.001zM34.713 2.909c-0.225-0.251-0.297-0.364-0.4-0.434-0.185-0.128-0.386-0.233-0.583-0.344-1.679-0.95-3.519-1.412-5.399-1.743-0.377-0.068-0.774-0.037-1.16-0.023-0.1 0.004-0.22 0.102-0.284 0.19-0.029 0.040 0.037 0.18 0.092 0.247 0.412 0.491 0.945 0.867 1.553 1.084l0.025 0.008c1.061 0.384 2.177 0.594 3.304 0.623 0.478 0.013 0.954 0.104 1.429 0.169 0.406 0.058 0.811 0.127 1.421 0.223zM20.442 30.286c-1.127-0.925-2.116-1.752-3.121-2.557-0.832-0.666-1.683-1.309-2.534-1.952-0.096-0.072-0.247-0.070-0.456-0.124 1.025 1.729 4.45 4.354 6.111 4.633zM12.846 8.699c0.68-0.521 1.309-1.071 2-1.524 0.968-0.634 1.339-1.421 1.11-2.773-0.687 0.564-1.177 1.244-1.707 1.861-0.56 0.651-0.975 1.427-1.442 2.155-0.036 0.059 0.023 0.175 0.039 0.281zM35.776 28.422c-0.634-0.044-1.273 0.069-1.671 0.412-0.755 0.652-1.653 0.98-2.567 1.306-0.48 0.171-0.932 0.422-1.384 0.662-0.063 0.033-0.074 0.209-0.061 0.313 0.005 0.035 0.174 0.092 0.243 0.069 0.82-0.281 1.668-0.507 2.445-0.883 0.953-0.459 1.848-1.040 2.759-1.579 0.096-0.054 0.146-0.181 0.235-0.299zM11.545 19.383c-0.182 0.54-0.146 0.838-0.032 1.157 0.318 0.883 0.511 1.814 1.084 2.585 0.213 0.286 0.256 0.925 0.648 0.787 0.345-0.12-0.059-0.627-0.082-0.968-0.090-1.304-0.773-2.355-1.618-3.561zM17.697 3.141l0.085 0.128c0.474-0.176 0.952-0.343 1.421-0.532 2.468-0.947 3.474-1.369 4.476-1.799l-1.426 0.544c0.204-0.087 0.391-0.225 0.566-0.366 0.049-0.040 0.040-0.175 0.025-0.258-0.008-0.037-0.104-0.078-0.16-0.080-0.095 0.002-0.189 0.018-0.279 0.046-1.377 0.393-2.676 0.974-3.92 1.68-0.291 0.165-0.526 0.422-0.787 0.636zM41.887 17.148c0.083-0.097 0.149-0.137 0.153-0.183 0.134-1.421-0.016-2.829-0.21-4.234-0.009-0.070-0.107-0.171-0.174-0.18-0.073-0.009-0.187 0.052-0.232 0.117-0.073 0.105-0.118 0.225-0.132 0.352-0.073 1.158 0.003 2.321 0.226 3.46 0.044 0.23 0.233 0.433 0.367 0.668zM11.213 13.227c0.537-0.206 0.617-0.578 0.676-0.915 0.14-0.82 0.491-1.61 0.375-2.477-0.562 1.035-1.060 2.084-1.051 3.392h-0zM24.221 31.236c-1.204-0.535-1.531-0.591-2.604-0.442 0.455 0.174 0.864 0.448 1.276 0.453 0.429 0.006 0.894 0.534 1.329-0.011h-0z"></path>
<path d="M26.706 20.594c-0.824-0.014-1.39-0.361-1.809-1.029-0.39-0.624-1.039-0.947-1.634-1.332-0.75-0.484-1.36-1.030-1.532-2.012-0.12-0.666 0.019-1.244 0.288-1.769 0.226-0.439 0.629-0.847 1.052-1.109 0.459-0.283 0.84-0.55 1.052-1.073 0.24-0.602 0.845-0.638 1.38-0.746 0.504-0.102 1.017-0.167 1.514-0.295 0.68-0.174 1.297-0.12 1.794 0.412 0.384 0.412 0.832 0.708 1.332 0.958 0.52 0.26 0.691 0.563 0.529 1.107-0.111 0.368-0.004 0.62 0.133 0.914 0.15 0.321 0.303 0.647 0.407 0.986 0.343 1.128-0.052 2.077-1.106 2.58-0.654 0.311-1.154 0.726-1.316 1.456-0.065 0.294-0.248 0.461-0.507 0.537-0.521 0.153-1.050 0.279-1.577 0.416zM30.164 15.866c0.017-1.987-1.484-3.576-3.435-3.579-1.751 0-3.512 1.19-3.581 3.469-0.055 1.825 1.459 3.524 3.432 3.53 2.403 0.012 3.537-1.663 3.583-3.42zM23.13 17.766c0-0.255 0.024-0.385-0.004-0.503-0.259-1.080-0.427-2.149 0.16-3.189 0.042-0.074-0.055-0.229-0.088-0.346-0.115 0.037-0.254 0.045-0.341 0.117-0.97 0.799-1.403 2.718 0.273 3.92zM26.731 11.788c0.406 0.149 0.638 0.255 0.88 0.321 0.894 0.238 1.656 0.664 2.187 1.451 0.105 0.155 0.24 0.385 0.44 0.209 0.106-0.095 0.141-0.382 0.080-0.526-0.082-0.191-0.27-0.43-0.451-0.468-0.491-0.103-0.76-0.46-1.080-0.771-0.538-0.518-1.139-0.681-2.055-0.215zM26.676 19.611l-0.012-0.075c-0.257 0-0.517-0.023-0.771 0.009-0.131 0.016-0.249 0.127-0.373 0.196 0.113 0.1 0.21 0.257 0.34 0.289 0.692 0.176 1.391 0.213 2.074-0.055 0.117-0.046 0.247-0.106 0.32-0.2 0.065-0.080 0.086-0.223 0.073-0.331-0.005-0.040-0.167-0.101-0.247-0.088-0.469 0.074-0.936 0.167-1.403 0.254l-0.002 0.001zM30.219 17.573c0.48-0.089 0.694-0.361 0.722-0.778 0.021-0.352 0.015-0.705-0.015-1.057-0.008-0.092-0.137-0.175-0.21-0.263-0.107 0.101-0.324 0.238-0.304 0.299 0.195 0.609-0.213 1.155-0.194 1.798v0.001zM34.609 20.323c-0.028 0.014-0.139 0.108-0.259 0.121-0.11 0.013-0.27-0.024-0.338-0.101-0.322-0.359-0.642-0.75-0.946-1.154l-0.032-0.045c-0.080-0.109-0.113-0.401-0.067-0.426 0.15-0.083 0.443-0.169 0.508-0.098 0.386 0.427 0.726 0.897 1.074 1.358 0.034 0.046 0.024 0.125 0.059 0.346zM18.271 23.67c0.178 0.014 0.531 0.025 0.874 0.084 0.086 0.015 0.2 0.183 0.2 0.284s-0.099 0.274-0.185 0.295c-0.668 0.167-1.332 0.207-1.923-0.241-0.059-0.055-0.095-0.133-0.095-0.22 0-0.010 0-0.019 0.001-0.028l-0 0.001c0.013-0.067 0.116-0.16 0.186-0.165 0.256-0.022 0.513-0.010 0.942-0.010zM39.2 9.563l0.252 0.139c-0.071 0.129-0.115 0.336-0.22 0.373-0.406 0.157-0.9 0.302-1.409 0.411l-0.068 0.012c-0.144 0.028-0.354-0.114-0.487-0.232-0.153-0.136-0.062-0.431 0.132-0.461 0.569-0.088 1.142-0.155 1.798-0.242zM22.199 26.542c0.268 0.125 0.491 0.16 0.6 0.294 0.299 0.372 0.572 0.764 0.819 1.174 0.12 0.195 0.010 0.406-0.192 0.462-0.111 0.031-0.311-0.060-0.393-0.16-0.303-0.364-0.601-0.767-0.875-1.188l-0.030-0.049c-0.064-0.102 0.035-0.308 0.071-0.532zM32.681 11.018c0.017-0.114 0-0.244 0.053-0.294 0.072-0.066 0.226-0.12 0.3-0.085 0.101 0.049 0.167 0.182 0.237 0.286 0.194 0.292 0.385 0.584 0.569 0.883 0.083 0.134 0.193 0.276 0.2 0.42 0.008 0.133-0.073 0.306-0.173 0.398-0.056 0.051-0.285 0.018-0.341-0.053-0.37-0.471-0.813-0.913-0.846-1.555zM33.831 6.010c-0.080 0.481-0.112 0.836-0.205 1.175-0.059 0.183-0.17 0.345-0.32 0.465-0.106 0.086-0.291 0.073-0.44 0.105-0.012-0.14-0.055-0.286-0.030-0.419 0.078-0.41 0.182-0.815 0.276-1.221 0.007-0.032 0.005-0.066 0.014-0.096 0.073-0.246 0.233-0.433 0.487-0.331 0.128 0.051 0.188 0.276 0.218 0.323zM26.936 9.141c0.224 0.028 0.516 0.044 0.793 0.111 0.095 0.023 0.234 0.194 0.218 0.268-0.029 0.132-0.138 0.306-0.254 0.345-0.183 0.058-0.379 0.059-0.563 0.003-0.32-0.102-0.617-0.136-0.937-0.002-0.21 0.088-0.406-0.005-0.462-0.214-0.075-0.281 0.135-0.417 0.372-0.457 0.252-0.042 0.512-0.035 0.833-0.054zM31.924 22.972c-0.091 0.398-0.16 0.748-0.258 1.089-0.019 0.067-0.16 0.158-0.219 0.142-0.106-0.026-0.256-0.11-0.278-0.197-0.026-0.097-0.040-0.209-0.040-0.324 0-0.090 0.009-0.177 0.026-0.262l-0.001 0.008c0.075-0.35 0.149-0.682 0.008-1.039-0.068-0.171-0.048-0.444 0.211-0.444 0.14 0 0.34 0.174 0.403 0.317 0.102 0.229 0.109 0.499 0.149 0.71zM27.989 22.869c-0.052 0.093-0.077 0.204-0.146 0.251-0.421 0.291-0.843 0.584-1.286 0.838-0.114 0.065-0.312 0.025-0.457-0.018-0.212-0.063-0.256-0.343-0.080-0.455 0.342-0.231 0.822-0.531 1.31-0.82l0.162-0.089c0.080-0.046 0.24 0.004 0.343 0.055 0.070 0.035 0.1 0.149 0.153 0.237zM22.623 4.155c0.069 0.040 0.197 0.075 0.215 0.139 0.167 0.618 0.328 1.238 0.461 1.864 0.037 0.174-0.192 0.27-0.346 0.167-0.484-0.327-0.785-1.536-0.503-2.042 0.029-0.050 0.101-0.076 0.173-0.128zM28.598 5.911c-0.146-0.097-0.303-0.147-0.324-0.231-0.023-0.091 0.053-0.248 0.134-0.321 0.355-0.318 0.726-0.617 1.112-0.897 0.13-0.092 0.4-0.157 0.5-0.086 0.236 0.167 0.112 0.401-0.053 0.573-0.221 0.231-0.44 0.476-0.694 0.663-0.195 0.141-0.445 0.201-0.675 0.299zM19.404 9.178l-0.353 0.335c-0.101-0.11-0.251-0.201-0.293-0.331-0.121-0.342-0.274-0.862-0.41-1.389l-0.036-0.167c-0.018-0.072 0.040-0.219 0.1-0.243 0.098-0.041 0.259-0.056 0.334 0 0.146 0.108 0.314 0.254 0.362 0.417 0.126 0.425 0.192 0.87 0.297 1.377zM15.534 17.758c-0.325 0.597-0.571 1.208-1.175 1.533-0.101 0.055-0.326-0.015-0.435-0.102-0.185-0.147 0-0.27 0.090-0.395 0.283-0.391 0.545-0.8 0.847-1.176 0.078-0.097 0.275-0.144 0.408-0.131 0.091 0.009 0.166 0.164 0.265 0.272zM19.197 17.808c0.169 0.098 0.292 0.128 0.315 0.192 0.038 0.106 0.057 0.272 0 0.346-0.093 0.117-0.252 0.185-0.388 0.263-0.355 0.204-0.704 0.419-1.074 0.594-0.112 0.053-0.316 0.037-0.416-0.035-0.206-0.147-0.134-0.383 0.032-0.487 0.507-0.318 1.039-0.597 1.531-0.874zM37.533 15.107c-0.13 0.295-0.313 0.74-0.531 1.167-0.034 0.066-0.244 0.102-0.333 0.063-0.083-0.037-0.173-0.205-0.156-0.295 0.087-0.476 0.183-0.952 0.33-1.411 0.045-0.14 0.247-0.267 0.403-0.314 0.058-0.018 0.209 0.201 0.28 0.334 0.041 0.075 0.007 0.191 0.007 0.457zM15.432 11.562c0.574 0.517 0.506 1.218 0.569 1.866 0.012 0.12-0.137 0.293-0.256 0.38-0.062 0.046-0.316-0.027-0.322-0.070-0.071-0.474-0.148-1.15-0.206-1.832l-0.009-0.138c-0.005-0.056 0.131-0.125 0.224-0.205zM28.843 27.562c0.096 0.025 0.191 0.056 0.284 0.093 0.344 0.16 0.691 0.316 1.028 0.493 0.16 0.083 0.32 0.188 0.435 0.321 0.133 0.154-0.019 0.451-0.204 0.41-0.625-0.135-1.236-0.325-1.704-0.794-0.069-0.069-0.068-0.243-0.045-0.358 0.013-0.065 0.134-0.11 0.207-0.165zM21.231 11.751c0.033 0.104 0.146 0.265 0.107 0.366-0.21 0.535-0.453 1.058-0.701 1.578-0.030 0.064-0.16 0.121-0.237 0.11-0.068-0.009-0.16-0.103-0.178-0.175-0.131-0.579 0.283-1.615 0.744-1.876 0.047-0.027 0.123-0.004 0.265-0.004zM39.116 20.54c-0.072-0.046-0.222-0.101-0.3-0.209-0.032-0.043 0.069-0.239 0.156-0.302 0.336-0.252 0.723-0.512 1.123-0.753l0.064-0.036c0.11-0.065 0.34-0.069 0.421 0.003 0.075 0.068 0.086 0.321 0.018 0.414-0.343 0.48-0.776 0.846-1.483 0.883zM36.74 24.672c-0.297-0.031-0.426-0.034-0.549-0.062-0.052-0.012-0.131-0.074-0.131-0.114-0.001-0.008-0.001-0.017-0.001-0.026 0-0.086 0.026-0.167 0.069-0.234l-0.001 0.002c0.064-0.073 0.147-0.125 0.24-0.151 0.458-0.138 0.915-0.276 1.38-0.388 0.101-0.024 0.313 0.042 0.326 0.1 0.031 0.137-0.006 0.303-0.059 0.442-0.028 0.073-0.142 0.133-0.228 0.16-0.398 0.11-0.797 0.207-1.045 0.272zM22.964 21.356c-0.033 0.14-0.086 0.451-0.189 0.743-0.025 0.073-0.225 0.142-0.317 0.116s-0.2-0.178-0.197-0.274c0.009-0.541 0.036-1.083 0.091-1.622 0.012-0.117 0.16-0.221 0.246-0.331 0.102 0.109 0.268 0.205 0.294 0.329 0.058 0.279 0.046 0.573 0.072 1.039zM44.404 4.422c0-1.146 0.276-2.016 0.829-2.608 0.559-0.599 1.275-0.898 2.148-0.898s1.567 0.258 2.081 0.775c0.522 0.517 0.782 1.342 0.782 2.475s-0.276 1.99-0.829 2.57-1.29 0.869-2.214 0.869c-0.797 0-1.45-0.23-1.959-0.69-0.264-0.24-0.471-0.57-0.622-0.993-0.144-0.428-0.216-0.929-0.216-1.502zM47.352 1.012c-0.634 0-1.155 0.283-1.564 0.85-0.402 0.567-0.603 1.399-0.603 2.494s0.192 1.896 0.575 2.4c0.383 0.504 0.892 0.756 1.526 0.756 0.641 0 1.162-0.284 1.564-0.851 0.408-0.573 0.612-1.402 0.612-2.485 0-1.089-0.194-1.889-0.584-2.4-0.383-0.51-0.892-0.765-1.526-0.765zM51.873 7.569h-0.782v-6.614h0.782v3.042h3.061v-3.042h0.782v6.614h-0.782v-3.477h-3.061v3.477zM59.735 7.569h-0.123l0.819-6.614h0.311l1.978 6.113 1.969-6.113h0.311l0.819 6.614h-0.782l-0.65-5.292-1.705 5.292h-0.594l-1.724-5.225-0.631 5.225zM71.038 0.955c0.119 0.119 0.179 0.274 0.179 0.463 0 0.158-0.035 0.318-0.104 0.482l-1.686 3.43v2.239h-0.782v-2.031l-1.884-4.583h0.801l1.799 4.261 1.639-3.317c0.069-0.158 0.104-0.321 0.104-0.491s-0.047-0.302-0.141-0.397l0.075-0.057zM1.328 9.307c0.487-0.022 0.963-0.033 1.427-0.033 0.476 0 0.974 0.050 1.494 0.15 0.531 0.1 1.052 0.288 1.56 0.566 0.518 0.264 0.955 0.617 1.306 1.042l0.005 0.007c0.365 0.422 0.658 0.983 0.879 1.682s0.332 1.548 0.332 2.548c0 0.999-0.166 1.898-0.498 2.697-0.321 0.788-0.764 1.393-1.328 1.815-1.095 0.821-2.418 1.232-3.967 1.232-0.542 0-1.112-0.023-1.71-0.067h-0.83v-11.638h1.328zM1.377 20.812c0.233 0.023 0.526 0.033 0.88 0.033s0.62-0.006 0.797-0.017c0.177-0.011 0.421-0.055 0.73-0.133 0.33-0.094 0.617-0.214 0.885-0.361l-0.022 0.011c0.266-0.144 0.542-0.355 0.83-0.632 0.299-0.291 0.553-0.625 0.753-0.994l0.011-0.022c0.476-0.91 0.714-2.098 0.714-3.564 0-1.043-0.127-1.943-0.382-2.697-0.255-0.766-0.548-1.332-0.88-1.698-0.321-0.363-0.714-0.656-1.157-0.857l-0.022-0.009c-0.465-0.222-0.836-0.35-1.112-0.383-0.271-0.032-0.585-0.050-0.904-0.050-0.021 0-0.041 0-0.062 0l0.003-0c-0.365 0-0.719 0.017-1.062 0.050v11.323zM44.673 20.945h-0.216v-11.656h0.564l6.905 10.773v-10.773h0.216v11.656h-1.212l-6.258-9.658v9.658zM62.364 9.29h0.216v6.66c0 1.743-0.343 3.025-1.029 3.846-0.686 0.81-1.583 1.216-2.689 1.216-0.697 0-1.289-0.061-1.776-0.183-0.487-0.133-0.946-0.372-1.378-0.716-0.885-0.688-1.328-2.076-1.328-4.163v-6.66h1.378v6.644c0 2.020 0.304 3.369 0.913 4.046 0.31 0.333 0.631 0.561 0.963 0.682 0.343 0.122 0.752 0.183 1.228 0.183 1.062 0 1.909-0.389 2.539-1.166 0.642-0.788 0.963-2.037 0.963-3.747v-6.643zM68.242 20.945h-1.378v-11.489h-2.872v-0.166h7.138v0.167h-2.888v11.488z"></path>
</svg>
