<!-- Generated by IcoMoon.io -->
<svg version="1.1" xmlns="http://www.w3.org/2000/svg" width="35" height="32" viewBox="0 0 35 32">
<title>people</title>
<path fill="#674d40" d="M11.848 0.008c-3.684 0.006-6.668 2.991-6.674 6.674v0.001c0.005 3.684 2.99 6.67 6.674 6.676h0.001c3.685-0.005 6.67-2.991 6.676-6.675v-0c-0.006-3.684-2.991-6.669-6.675-6.674h-0.001zM11.848 12.239c-3.071-0.004-5.559-2.493-5.561-5.563v-0c0.007-3.068 2.492-5.553 5.559-5.561h0.001c3.071 0.002 5.56 2.49 5.564 5.56v0c-0.005 3.070-2.491 5.557-5.56 5.564h-0.001zM25.52 2.779c-2.766 0.002-5.008 2.244-5.010 5.010v0c0.003 2.765 2.244 5.006 5.010 5.009h0c2.765-0.003 5.006-2.244 5.009-5.008v-0c-0.002-2.766-2.243-5.007-5.008-5.010h-0zM25.52 11.692c-2.152-0.002-3.896-1.745-3.898-3.896v-0c0.002-2.152 1.746-3.896 3.898-3.898h0c2.152 0.002 3.895 1.746 3.897 3.898v0c-0.002 2.151-1.745 3.894-3.896 3.897h-0z"></path>
<path fill="#674d40" d="M34.481 20.142c-0.505-3.043-2.396-5.61-5.617-6.954 0 0-1.427 1.079-3.345 1.044-2.096-0.040-3.345-1.044-3.345-1.044s-1.556 0.58-2.812 1.788c-1.16-1.031-3.119-1.87-3.119-1.87s-1.795 1.364-4.401 1.344c-2.738-0.020-4.39-1.344-4.39-1.344s-5.917 2.034-7.166 8.935c0 0-1.338 3.658 1.76 9.124h19.61s1.392-2.423 1.638-3.897h9.753c2.395-3.631 1.434-7.126 1.434-7.126zM20.967 30.053h-18.229c-2.382-4.525-1.352-7.828-1.352-7.828 0.598-3.51 2.856-6.388 5.922-7.835l0.064-0.027c1.285 0.756 2.831 1.203 4.481 1.203s3.196-0.447 4.523-1.226l-0.042 0.023c3.13 1.475 5.387 4.353 5.976 7.8l0.009 0.063c-0.007 0 0.983 4.067-1.351 7.828zM32.4 26.156h-8.88c0.341-1.966-0.109-4.117-0.109-4.117-0.421-2.485-1.574-4.647-3.228-6.314l0.001 0.001c0.573-0.519 1.207-0.948 1.903-1.283 2.096 1.2 4.765 1.2 6.86 0 2.32 1.12 3.991 3.268 4.43 5.836l0.007 0.047s0.812 2.756-0.983 5.828z"></path>
</svg>
