<!-- Generated by IcoMoon.io -->
<svg version="1.1" xmlns="http://www.w3.org/2000/svg" width="32" height="32" viewBox="0 0 32 32">
<title>phone</title>
<path d="M29.457 21.021c-0.010 0-0.022 0-0.033 0-2.030 0-3.983-0.333-5.806-0.947l0.128 0.037c-0.894-0.305-1.993-0.025-2.538 0.535l-3.602 2.72c-4.176-2.23-6.748-4.802-8.946-8.946l2.636-3.508c0.47-0.469 0.761-1.117 0.761-1.833 0-0.282-0.045-0.553-0.128-0.807l0.005 0.018c-0.578-1.699-0.912-3.655-0.912-5.69 0-0.011 0-0.022 0-0.033v0.002c-0.002-1.417-1.158-2.57-2.572-2.57h-5.881c-1.417 0-2.57 1.153-2.57 2.57 0 16.244 13.213 29.459 29.457 29.459 1.417 0 2.57-1.153 2.57-2.57v-5.864c0-1.419-1.153-2.572-2.57-2.572z"></path>
</svg>
