<!-- Generated by IcoMoon.io -->
<svg version="1.1" xmlns="http://www.w3.org/2000/svg" width="181" height="32" viewBox="0 0 181 32">
<title>rate4</title>
<path fill="#ab816c" d="M14.732 3.913c0.4-1.228 2.137-1.228 2.536 0l2.025 6.232c0.179 0.538 0.678 0.92 1.267 0.92h6.554c1.292 0 1.828 1.653 0.784 2.413l-5.302 3.851c-0.335 0.245-0.549 0.637-0.549 1.079 0 0.147 0.024 0.289 0.068 0.422l-0.003-0.009 2.024 6.232c0.4 1.229-1.007 2.251-2.051 1.491l-5.302-3.851c-0.217-0.159-0.489-0.255-0.784-0.255s-0.567 0.096-0.788 0.257l0.004-0.003-5.302 3.851c-1.044 0.76-2.451-0.263-2.051-1.491l2.024-6.232c0.041-0.123 0.065-0.265 0.065-0.412 0-0.442-0.215-0.833-0.546-1.076l-0.004-0.003-5.301-3.851c-1.044-0.76-0.507-2.413 0.784-2.413h6.552c0 0 0 0 0 0 0.589 0 1.088-0.381 1.265-0.911l0.003-0.009 2.025-6.232z"></path>
<path fill="none" stroke="#ab816c" stroke-linejoin="miter" stroke-linecap="butt" stroke-miterlimit="4" stroke-width="1.3333" d="M164.703 4.119c0.089-0.271 0.339-0.463 0.635-0.463s0.546 0.192 0.633 0.458l0.001 0.005 2.024 6.231c0.268 0.809 1.018 1.383 1.902 1.383 0 0 0 0 0 0h6.552c0.368 0 0.666 0.299 0.666 0.667 0 0.221-0.107 0.416-0.272 0.537l-0.002 0.001-5.302 3.852c-0.502 0.368-0.825 0.955-0.825 1.618 0 0.221 0.036 0.433 0.102 0.632l-0.004-0.014 2.025 6.232c0.021 0.062 0.033 0.133 0.033 0.207 0 0.368-0.298 0.667-0.667 0.667-0.148 0-0.284-0.048-0.395-0.129l0.002 0.001-5.3-3.852c-0.326-0.239-0.734-0.382-1.176-0.382s-0.851 0.143-1.182 0.386l0.006-0.004-5.3 3.852c-0.109 0.080-0.245 0.128-0.393 0.128-0.368 0-0.667-0.299-0.667-0.667 0-0.075 0.012-0.146 0.035-0.213l-0.001 0.005 2.025-6.231c0.062-0.185 0.098-0.397 0.098-0.618 0-0.663-0.322-1.25-0.819-1.614l-0.006-0.004-5.302-3.852c-0.167-0.123-0.274-0.318-0.274-0.539 0-0.368 0.298-0.666 0.666-0.667h6.552c0 0 0 0 0 0 0.884 0 1.634-0.573 1.898-1.369l0.004-0.014 2.024-6.231z"></path>
<path fill="#ab816c" d="M126.736 3.913c0.4-1.228 2.137-1.228 2.536 0l2.025 6.232c0.179 0.538 0.678 0.92 1.267 0.92h6.554c1.292 0 1.828 1.653 0.784 2.413l-5.302 3.851c-0.335 0.245-0.549 0.637-0.549 1.079 0 0.147 0.024 0.289 0.068 0.422l-0.003-0.009 2.024 6.232c0.4 1.229-1.007 2.251-2.051 1.491l-5.302-3.851c-0.217-0.159-0.489-0.255-0.784-0.255s-0.567 0.096-0.788 0.257l0.004-0.003-5.302 3.851c-1.044 0.76-2.451-0.263-2.051-1.491l2.024-6.232c0.041-0.123 0.065-0.265 0.065-0.412 0-0.442-0.215-0.833-0.546-1.076l-0.004-0.003-5.302-3.851c-1.045-0.76-0.507-2.413 0.784-2.413h6.552c0 0 0 0 0 0 0.589 0 1.088-0.381 1.265-0.911l0.003-0.009 2.025-6.232zM89.401 3.913c0.4-1.228 2.137-1.228 2.536 0l2.025 6.232c0.179 0.538 0.678 0.92 1.267 0.92h6.554c1.292 0 1.829 1.653 0.784 2.413l-5.302 3.851c-0.335 0.245-0.549 0.637-0.549 1.079 0 0.147 0.024 0.289 0.068 0.422l-0.003-0.009 2.024 6.232c0.4 1.229-1.007 2.251-2.051 1.491l-5.302-3.851c-0.217-0.159-0.489-0.255-0.784-0.255s-0.567 0.096-0.788 0.257l0.004-0.003-5.302 3.851c-1.044 0.76-2.451-0.263-2.051-1.491l2.024-6.232c0.041-0.123 0.065-0.265 0.065-0.412 0-0.442-0.215-0.833-0.546-1.076l-0.004-0.003-5.302-3.851c-1.044-0.76-0.507-2.413 0.784-2.413h6.552c0 0 0 0 0 0 0.589 0 1.088-0.381 1.265-0.911l0.003-0.009 2.025-6.232zM52.067 3.913c0.4-1.228 2.137-1.228 2.536 0l2.025 6.232c0.179 0.538 0.678 0.92 1.267 0.92h6.554c1.292 0 1.828 1.653 0.784 2.413l-5.301 3.851c-0.335 0.245-0.549 0.637-0.549 1.079 0 0.147 0.024 0.289 0.068 0.422l-0.003-0.009 2.024 6.232c0.4 1.229-1.007 2.251-2.051 1.491l-5.301-3.851c-0.217-0.159-0.489-0.255-0.784-0.255s-0.567 0.096-0.788 0.257l0.004-0.003-5.3 3.851c-1.045 0.76-2.452-0.263-2.053-1.491l2.027-6.232c0.041-0.123 0.065-0.264 0.065-0.411 0-0.442-0.215-0.834-0.547-1.077l-0.004-0.003-5.301-3.851c-1.045-0.76-0.507-2.413 0.784-2.413h6.552c0 0 0 0 0 0 0.589 0 1.088-0.381 1.265-0.911l0.003-0.009 2.025-6.232z"></path>
</svg>
