<!-- Generated by IcoMoon.io -->
<svg version="1.1" xmlns="http://www.w3.org/2000/svg" width="40" height="32" viewBox="0 0 40 32">
<title>twitter</title>
<path d="M40.447 3.795c-1.391 0.608-3.004 1.056-4.692 1.265l-0.086 0.009c1.71-0.993 3.001-2.549 3.632-4.409l0.017-0.057c-1.515 0.891-3.278 1.571-5.151 1.939l-0.107 0.017c-1.531-1.578-3.671-2.557-6.040-2.557-0.007 0-0.014 0-0.021 0h0.001c-4.586 0-8.282 3.63-8.282 8.081 0 0.64 0.056 1.257 0.192 1.844-6.875-0.317-12.945-3.519-17.066-8.416l-0.029-0.036c-0.71 1.166-1.131 2.575-1.134 4.083v0.001c0 2.798 1.478 5.278 3.682 6.714-1.378-0.036-2.663-0.4-3.79-1.016l0.044 0.022v0.089c0 3.927 2.875 7.186 6.643 7.938-0.674 0.18-1.411 0.266-2.174 0.266-0.531 0-1.067-0.030-1.571-0.138 1.075 3.2 4.124 5.551 7.749 5.629-2.81 2.15-6.374 3.445-10.24 3.445-0.014 0-0.028-0-0.042-0h0.002c-0.681 0-1.333-0.029-1.985-0.11 3.676 2.309 8.029 3.625 12.722 3.625 15.259 0 23.601-12.316 23.601-22.991 0-0.357-0.013-0.703-0.030-1.045 1.639-1.15 3.018-2.541 4.12-4.138l0.036-0.055z"></path>
</svg>
